<svg viewBox="0 0 800 800" xmlns="http://www.w3.org/2000/svg"><path d="M412.74136867786075,172.1519345300075 L404.6006233944418,167.88037453408265 M404.6006233944418,167.88037453408265 L395.88441456867025,164.0101284692488 M395.88441456867025,164.0101284692488 L386.6517866994554,160.5665642999196 M386.6517866994554,160.5665642999196 L376.9650155548312,157.57218715103255 M376.9650155548312,157.57218715103255 L366.8892108925863,155.04652800334537 M366.8892108925863,155.04652800334537 L356.4918732168938,153.00603503620624 M356.4918732168938,153.00603503620624 L345.8425152438165,151.46396358779532 M345.8425152438165,151.46396358779532 L335.0121915872758,150.43032411265142 M335.0121915872758,150.43032411265142 L324.07305048873866,149.91182690703175 M324.07305048873866,149.91182690703175 L313.0979517405234,149.91182690703175 M313.0979517405234,149.91182690703175 L302.1599082751574,150.43032411265142 M302.1599082751574,150.43032411265142 L291.33177278272393,151.46396358779532 M291.33177278272393,151.46396358779532 L280.68567929932135,153.00603503620624 M280.68567929932135,153.00603503620624 L270.2926612472298,155.04652800334537 M270.2926612472298,155.04652800334537 L260.22220328161046,157.57218715103255 M260.22220328161046,157.57218715103255 L250.54177108664703,160.5665642999196 M250.54177108664703,160.5665642999196 L241.3164330739994,164.0101284692488 M241.3164330739994,164.0101284692488 L232.60841818919687,167.88037406649977 M232.60841818919687,167.88037406649977 L224.47671476918543,172.1519345300074 M224.47671476918543,172.1519345300074 L13.435817983141874,292.52522400585605 M13.435817983141874,292.52522400585605 L5.7225213054164215,297.296655702224 M5.7225213054164215,297.296655702224 L-1.3068372421085428,302.4201333835075 M-1.3068372421085428,302.4201333835075 L-7.603795871521072,307.861789889723 M-7.603795871521072,307.861789889723 L-13.124574138576634,313.5855104945308 M-13.124574138576634,313.5855104945308 L-17.83043210178124,319.5531857784602 M-17.83043210178124,319.5531857784602 L-21.687926222820693,325.7249407377233 M-21.687926222820693,325.7249407377233 L-24.66915984937384,332.0593291018133 M-24.66915984937384,332.0593291018133 L-26.752019319672456,338.5136408861351 M-26.752019319672456,338.5136408861351 L-27.920450862182918,345.0442276369581 M-27.920450862182918,345.0442276369581 L-28.164469857913446,351.6066473103417 M-28.164469857913446,351.6066473103417 L-27.480410995247667,358.1561190121529 M-27.480410995247667,358.1561190121529 L-25.87097113182392,364.6477281464913 M-25.87097113182392,364.6477281464913 L-23.34520637934031,371.036761053045 M-23.34520637934031,371.036761053045 L-19.91856290693096,377.27902527391734 M-19.91856290693096,377.27902527391734 L-15.612813353130264,383.3311667552658 M-15.612813353130264,383.3311667552658 L-10.4560048984373,389.151014901502 M-10.4560048984373,389.151014901502 L-4.482176554517366,394.6978105067452 M-4.482176554517366,394.6978105067452 L2.268744461841095,399.93258212853516 M2.268744461841095,399.93258212853516 L9.751170039889757,404.8184341944208 M9.751170039889757,404.8184341944208 L17.79453107237157,409.2601001291017 M17.79453107237157,409.2601001291017 L26.445954460436667,413.2983869137313 M26.445954460436667,413.2983869137313 L35.64753733386726,416.90538976741254 M35.64753733386726,416.90538976741254 L45.33744209791689,420.0561135260342 M45.33744209791689,420.0561135260342 L55.45036070042181,422.7286434316144 M55.45036070042181,422.7286434316144 L65.91782191619347,424.90440624732014 M65.91782191619347,424.90440624732014 L76.6688527728474,426.5682160520986 M76.6688527728474,426.5682160520986 L87.63033784029165,427.708483727033 M87.63033784029165,427.708483727033 L98.72771078016245,428.3172301883935 M98.72771078016245,428.3172301883935 L109.8853491346951,428.3902027745331 M109.8853491346951,428.3902027745331 L121.02723340561278,427.92688446788156 M121.02723340561278,427.92688446788156 L132.07740512221284,426.9305363737499 M132.07740512221284,426.9305363737499 L142.96066579187152,425.40808917777986 M142.96066579187152,425.40808917777986 L153.60296115356883,423.3701947954463 M153.60296115356883,423.3701947954463 L150.03904133574574,429.6283460513357 M150.03904133574574,429.6283460513357 L147.3437665876405,436.04059815097855 M147.3437665876405,436.04059815097855 L145.53680677890796,442.56489294294363 M145.53680677890796,442.56489294294363 L144.63196858585744,449.1583036322629 M144.63196858585744,449.1583036322629 L144.63723853997044,455.7772127135255 M144.63723853997044,455.7772127135255 L145.55453739646094,462.37767914199344 M145.55453739646094,462.37767914199344 L147.379724691711,468.9156729328911 M147.379724691711,468.9156729328911 L150.1025210611337,475.3474281021223 M150.1025210611337,475.3474281021223 L153.70661092957855,481.6296503305076 M153.70661092957855,481.6296503305076 L158.1696374873608,487.719955024609 M158.1696374873608,487.719955024609 L163.46332348873617,493.57699477890446 M163.46332348873617,493.57699477890446 L169.5536067792895,499.1609530078674 M169.5536067792895,499.1609530078674 L176.40084482416984,504.4336567306083 M176.40084482416984,504.4336567306083 L183.96014654597434,509.3589579649871 M183.96014654597434,509.3589579649871 L192.30367116380393,513.9651034988841 M192.30367116380393,513.9651034988841 L201.27116521947113,518.1463059977797 M201.27116521947113,518.1463059977797 L210.80088960124993,521.8727854664808 M210.80088960124993,521.8727854664808 L220.8269270493003,525.1179625188719 M220.8269270493003,525.1179625188719 L231.27964221938402,527.8586595752314 M231.27964221938402,527.8586595752314 L242.08627576837256,530.075209763545 M242.08627576837256,530.075209763545 L253.17135703837255,531.7517073820524 M253.17135703837255,531.7517073820524 L264.4573033666885,532.8760994389902 M264.4573033666885,532.8760994389902 L275.86509398686354,533.4403441872315 M275.86509398686354,533.4403441872315 L287.31469201157915,533.4403441872315 M287.31469201157915,533.4403441872315 L298.72584888927946,532.8760994389902 M298.72584888927946,532.8760994389902 L310.01850328751516,531.7517073820524 M310.01850328751516,531.7517073820524 L321.1135864631456,530.075209763545 M321.1135864631456,530.075209763545 L331.9334438458958,527.8586595752314 M331.9334438458958,527.8586595752314 L342.40249633834117,525.1179706136165 M342.40249633834117,525.1179706136165 L352.44789437300017,521.8727935555445 M352.44789437300017,521.8727935555445 L361.99986428865026,518.1463059977797 M361.99986428865026,518.1463059977797 L370.9923032009962,513.9651034988841 M370.9923032009962,513.9651034988841 L379.36330786558636,509.3589579649871 M379.36330786558636,509.3589579649871 L590.4088780654815,383.1650625799829 M590.4088780654815,383.1650625799829 L597.8832978034505,378.3023621244786 M597.8832978034505,378.3023621244786 L604.6286608583317,373.09238277389545 M604.6286608583317,373.09238277389545 L610.5994146914067,367.57184121428077 M610.5994146914067,367.57184121428077 L615.7556459531166,361.7795224052252 M615.7556459531166,361.7795224052252 L620.0633120048738,355.7559904734337 M620.0633120048738,355.7559904734337 L623.4943443319854,349.5432146864151 M623.4943443319854,349.5432146864151 L626.0269311609838,343.18434266470643 M626.0269311609838,343.18434266470643 L627.6455700912071,336.72335701163496 M627.6455700912071,336.72335701163496 L628.3411323165697,330.2047596487247 M628.3411323165697,330.2047596487247 L628.110832693464,323.6732530842501 M628.110832693464,323.6732530842501 L626.9582334803945,317.1734073621526 M626.9582334803945,317.1734073621526 L624.8932021489575,310.74945587383013 M624.8932021489575,310.74945587383013 L621.9316628847771,304.4448427367975 M621.9316628847771,304.4448427367975 L618.0955877837206,298.302078560754 M618.0955877837206,298.302078560754 L613.4127078951981,292.36240899005196 M613.4127078951981,292.36240899005196 L607.9163323940143,286.66553931306925 M607.9163323940143,286.66553931306925 L601.645031637797,281.24940247474854 M601.645031637797,281.24940247474854 L594.6423825345557,276.14993106033296 M594.6423825345557,276.14993106033296 L586.9566781219389,271.40084388648506 M586.9566781219389,271.40084388648506 L578.7619902788533,267.09226480183116 M578.7619902788533,267.09226480183116 L570.0087325671956,263.1821881048821 M570.0087325671956,263.1821881048821 L560.7544946519874,259.69549417089905 M560.7544946519874,259.69549417089905 L551.0599726669047,256.6543436954498 M551.0599726669047,256.6543436954498 L540.9884548349091,254.0779850867546 M540.9884548349091,254.0779850867546 L530.6055583587079,251.98274236779957 M530.6055583587079,251.98274236779957 L519.9786991972132,250.3818202364023 M519.9786991972132,250.3818202364023 L509.17679190753336,249.2853299504555 M509.17679190753336,249.2853299504555 L498.2697801363271,248.70017316377562 M498.2697801363271,248.70017316377562 L487.3282333210352,248.63003870538097 M487.3282333210352,248.63003870538097 L476.4229123019503,249.0753671494375 M476.4229123019503,249.0753671494375 L465.62436969773205,250.0333515945514 M465.62436969773205,250.0333515945514 L455.0025106216915,251.49796320322866 M455.0025106216915,251.49796320322866 L444.62618723742526,253.45996543819564 M444.62618723742526,253.45996543819564 L447.92395167340953,247.44037680547905 M447.92395167340953,247.44037680547905 L450.3575901108386,241.2894582127518 M450.3575901108386,241.2894582127518 L451.91263256559307,235.0485219924807 M451.91263256559307,235.0485219924807 L452.5805650003068,228.7593103418801 M452.5805650003068,228.7593103418801 L452.3588076976662,222.46371781127823 M452.3588076976662,222.46371781127823 L451.25070139230706,216.20349908906917 M451.25070139230706,216.20349908906917 L449.2654443721266,210.02000765299704 M449.2654443721266,210.02000765299704 L446.41794546490894,203.95391404669925 M446.41794546490894,203.95391404669925 L442.72872977898305,198.04495087674064 M442.72872977898305,198.04495087674064 L438.2237214697826,192.33167268282068 M438.2237214697826,192.33167268282068 L432.9340635153752,186.85120099945573 M432.9340635153752,186.85120099945573 L426.8958505723208,181.63901703355754 M426.8958505723208,181.63901703355754 L420.1498798084672,176.72874094144998 M420.1498798084672,176.72874094144998 L412.74136867786075,172.1519345300075 M207.53679937324745,355.1688241234964 L330.3381194570521,283.7616646712768 M97.27455613327845,290.2067598634464 L91.51101934632743,293.8839842808129 M91.51101934632743,293.8839842808129 L86.45222288387049,297.89976544953043 M86.45222288387049,297.89976544953043 L82.1579554261076,302.2078454618273 M82.1579554261076,302.2078454618273 L78.67929663408307,306.75848401297475 M78.67929663408307,306.75848401297475 L76.0580568128413,311.4989689039499 M76.0580568128413,311.4989689039499 L74.32619832174055,316.3742260453532 M74.32619832174055,316.3742260453532 L73.50541618617234,321.32743066114176 M73.50541618617234,321.32743066114176 L73.60682068491718,326.3006635926401 M73.60682068491718,326.3006635926401 L74.63074662151342,331.23557897733156 M74.63074662151342,331.23557897733156 L76.56665508461157,336.0740925114994 M76.56665508461157,336.0740925114994 L79.3932142052223,340.75906022058297 M79.3932142052223,340.75906022058297 L83.07844545515843,345.23500350633594 M83.07844545515843,345.23500350633594 L87.58009444575401,349.4487346357762 M87.58009444575401,349.4487346357762 L92.84605696521442,353.35004682093154 M92.84605696521442,353.35004682093154 L98.81493948234555,356.89233870982537 M98.81493948234555,356.89233870982537 L105.4167881786388,360.03318979582446 M105.4167881786388,360.03318979582446 L112.57390737621608,362.7348998191768 M112.57390737621608,362.7348998191768 L120.20176384563365,364.96498742366566 M120.20176384563365,364.96498742366566 L128.2100039030572,366.69659862323795 M128.2100039030572,366.69659862323795 L136.5036136107625,367.9088416507061 M136.5036136107625,367.9088416507061 L144.98399848743833,368.5870891103698 M144.98399848743833,368.5870891103698 L153.55026590732467,368.7231466046561 M153.55026590732467,368.7231466046561 L162.1004559474588,368.3153755110327 M162.1004559474588,368.3153755110327 L170.53281435000014,367.3687007540399 M170.53281435000014,367.3687007540399 L178.74705048050924,365.8945513415613 M178.74705048050924,365.8945513415613 L186.64559122870156,363.9107116112301 M186.64559122870156,363.9107116112301 L194.13476640518604,361.44109590844016 M194.13476640518604,361.44109590844016 L201.1259956940188,358.51541305687533 M201.1259956940188,358.51541305687533 L207.53679937324745,355.1688241234964 M220.0651326901272,219.8141570543761 L97.27455613327845,290.2067598634464 M330.3381194570521,283.7616646712768 L335.99787821396825,280.09269180257627 M335.99787821396825,280.09269180257627 L340.9357875472743,276.0927547866139 M340.9357875472743,276.0927547866139 L345.09444342316493,271.8095667767281 M345.09444342316493,271.8095667767281 L348.42586768466623,267.2940859959152 M348.42586768466623,267.2940859959152 L350.89204118675997,262.59987448345726 M350.89204118675997,262.59987448345726 L352.46529391721117,257.7824464247924 M352.46529391721117,257.7824464247924 L353.1285762198854,252.89859559463054 M353.1285762198854,252.89859559463054 L352.8755863858563,248.00571210686962 M352.8755863858563,248.00571210686962 L351.7107756563401,243.16110243256549 M351.7107756563401,243.16110243256549 L349.64923289328794,238.4213274875956 M349.64923289328794,238.4213274875956 L346.7164411875437,233.8415483145829 M346.7164411875437,233.8415483145829 L342.947907684582,229.47489173631254 M342.947907684582,229.47489173631254 L338.3887086501479,225.3718677132719 M338.3887086501479,225.3718677132719 L333.09290812820564,221.57979676847918 M333.09290812820564,221.57979676847918 L327.12290623940186,218.14229816190652 M327.12290623940186,218.14229816190652 L320.5486890840249,215.09881663859125 M320.5486890840249,215.09881663859125 L313.44700899450316,212.4841996025349 M313.44700899450316,212.4841996025349 L305.900498717015,210.3283244445795 M305.900498717015,210.3283244445795 L297.99674313656413,208.65578975723298 M297.99674313656413,208.65578975723298 L289.82727231107623,207.48565129108124 M289.82727231107623,207.48565129108124 L281.48656423760383,206.83123147202303 M281.48656423760383,206.83123147202303 L273.0709851486284,206.6999753587072 M273.0709851486284,206.6999753587072 L264.67772064033153,207.09337389383904 M264.67772064033153,207.09337389383904 L256.40371616774155,208.00695216944968 M256.40371616774155,208.00695216944968 L248.34460522216284,209.43031574497843 M248.34460522216284,209.43031574497843 L240.59364615364336,211.34725421264153 M240.59364615364336,211.34725421264153 L233.2406862747249,213.73591254341153 M233.2406862747249,213.73591254341153 L226.37116508027054,216.56901524204613 M226.37116508027054,216.56901524204613 L220.0651326901272,219.8141570543761 M505.83324334865586,385.5316094312507 L511.4846181034626,381.779247813855 M511.4846181034626,381.779247813855 L516.399439636848,377.68845545897636 M516.399439636848,377.68845545897636 L520.5205582473515,373.3080133296984 M520.5205582473515,373.3080133296984 L523.8004887391537,368.6900569384675 M523.8004887391537,368.6900569384675 L526.2018280791681,363.889357335186 M526.2018280791681,363.889357335186 L527.6977445821512,358.9627168204338 M527.6977445821512,358.9627168204338 L528.2721163022737,353.9682104402675 M528.2721163022737,353.9682104402675 L527.9197065462951,348.96452228390683 M527.9197065462951,348.96452228390683 L526.64617476784,344.01026168424505 M526.64617476784,344.01026168424505 L524.4679137817209,339.1632678367441 M524.4679137817209,339.1632678367441 L521.4118015981037,334.47994766920715 M521.4118015981037,334.47994766920715 L517.5147918190994,330.0146148221012 M517.5147918190994,330.0146148221012 L512.8234851815249,325.8189194592348 M512.8234851815249,325.8189194592348 L507.39348203752684,321.941235692271 M507.39348203752684,321.941235692271 L501.2887553630504,318.4261631968376 M501.2887553630504,318.4261631968376 L494.5808463665272,315.3140228929049 M494.5808463665272,315.3140228929049 L487.34806000916535,312.6404440129522 M487.34806000916535,312.6404440129522 L479.6745258463029,310.43596267033655 M479.6745258463029,310.43596267033655 L471.64929605055113,308.72573101427025 M471.64929605055113,308.72573101427025 L463.36527499873023,307.5292202780006 M463.36527499873023,307.5292202780006 L454.91825142797245,306.8600514614476 M454.91825142797245,306.8600514614476 L446.40580309292534,306.72583575143284 M446.40580309292534,306.72583575143284 L437.92622704412577,307.12810294693276 M437.92622704412577,307.12810294693276 L429.5774372330101,308.0622711629964 M429.5774372330101,308.0622711629964 L421.45591597279724,309.51771339212695 M421.45591597279724,309.51771339212695 L413.6556484224132,311.4778670648446 M413.6556484224132,311.4778670648446 L406.26702582163267,313.9203780535007 M406.26702582163267,313.9203780535007 L399.37593605995426,316.81738355478626 M399.37593605995426,316.81738355478626 L393.0626705082756,320.1357470618507 M383.04043613959055,458.5684847369206 L505.83324334865586,385.5316094312507 M270.26078048706296,392.12326266955347 L264.5034175895722,395.88415103169496 M264.5034175895722,395.88415103169496 L259.46528715043195,399.9913387981302 M259.46528715043195,399.9913387981302 L255.20597892964332,404.3975346976931 M255.20597892964332,404.3975346976931 L251.7761614260715,409.05185482667207 M251.7761614260715,409.05185482667207 L249.21713141627004,413.9004073167257 M249.21713141627004,413.9004073167257 L247.5601465068852,418.8868605991304 M247.5601465068852,418.8868605991304 L246.82606544635746,423.9530997466376 M246.82606544635746,423.9530997466376 L247.0250322589887,429.0398935946122 M247.0250322589887,429.0398935946122 L248.1562618609276,434.0875577293982 M248.1562618609276,434.0875577293982 L250.20798477818767,439.03667726728736 M250.20798477818767,439.03667726728736 L253.1575292792217,443.82879433849325 M253.1575292792217,443.82879433849325 L256.9715042625053,448.4071628980404 M256.9715042625053,448.4071628980404 L261.60614202300366,452.71736305124637 M261.60614202300366,452.71736305124637 L267.0077894409421,456.7080356126095 M267.0077894409421,456.7080356126095 L273.1134441569102,460.3314963047386 M273.1134441569102,460.3314963047386 L279.8515391287365,463.54434648410415 M279.8515391287365,463.54434648410415 L287.1427480608728,466.30800606889864 M287.1427480608728,466.30800606889864 L294.9009462839095,468.58924581562167 M294.9009462839095,468.58924581562167 L303.0342053034197,470.3605804979039 M303.0342053034197,470.3605804979039 L311.446021164021,471.60064028722263 M311.446021164021,471.60064028722263 L320.03636933059727,472.2944542550281 M320.03636933059727,472.2944542550281 L328.7030278277343,472.4336361567156 M328.7030278277343,472.4336361567156 L337.34281371381917,472.0165031955754 M337.34281371381917,472.0165031955754 L345.8529038834611,471.0481030146451 M345.8529038834611,471.0481030146451 L354.13208700898065,469.54014075382634 M354.13208700898065,469.54014075382634 L362.0819688967861,467.5107906621257 M362.0819688967861,467.5107906621257 L369.60828966063883,464.98453724400645 M369.60828966063883,464.98453724400645 L376.6220101090631,461.99176760327373 M376.6220101090631,461.99176760327373 L383.04043613959055,458.5684847369206 M393.0626705082756,320.1357470618507 L270.26078048706296,392.12326266955347 M224.47671476918543,172.1519345300074 L223.4932709321081,176.51596181445063 M394.8983471240706,176.51596181445075 L387.06688228790244,172.4191662429908 M387.06688228790244,172.4191662429908 L378.6534149430778,168.73085124118234 M378.6534149430778,168.73085124118234 L369.7214761684891,165.4780439945887 M369.7214761684891,165.4780439945887 L360.33823031932087,162.6845236643153 M360.33823031932087,162.6845236643153 L350.57400641060315,160.37066976719257 M350.57400641060315,160.37066976719257 L340.50178483115803,158.55332763822685 M340.50178483115803,158.55332763822685 L330.19668229354903,157.2457152012674 M330.19668229354903,157.2457152012674 L319.73541856491,156.4573318709526 M319.73541856491,156.4573318709526 L309.1958090280893,156.19390254303238 M309.1958090280893,156.19390254303238 L298.65619949126864,156.4573318709526 M298.65619949126864,156.4573318709526 L288.1949357626296,157.2457152012674 M288.1949357626296,157.2457152012674 L277.88983322502054,158.55332763822685 M277.88983322502054,158.55332763822685 L267.8176116455754,160.37066976719257 M267.8176116455754,160.37066976719257 L258.05338773685776,162.6845236643153 M258.05338773685776,162.6845236643153 L248.67014188768945,165.4780439945887 M248.67014188768945,165.4780439945887 L239.73820311310078,168.73085124118234 M239.73820311310078,168.73085124118234 L231.32473576827618,172.41916624299074 M231.32473576827618,172.41916624299074 L223.4932709321081,176.51596181445063 M412.74136867786075,172.1519345300075 L394.8983471240706,176.51596181445075 M444.62618723742526,253.45996543819564 L436.5898586314115,256.6217626009808 M436.5898586314115,256.6217626009808 L428.5181876961881,259.9530152220401 M428.5181876961881,259.9530152220401 L421.2214775349511,263.12740681478203 M421.2214775349511,263.12740681478203 L413.8930428327136,266.50640635178075 M413.8930428327136,266.50640635178075 L409.39898347099785,268.6920199539856 M409.39898347099785,268.6920199539856 L404.89374868479246,270.98530660781216 M404.89374868479246,270.98530660781216 L400.3786738103016,273.4025832614264 M400.3786738103016,273.4025832614264 L395.85623846302195,275.9634028580587 M395.85623846302195,275.9634028580587 L403.03172261552487,271.3922520212497 M403.03172261552487,271.3922520212497 L409.48226183695425,266.47861314233825 M409.48226183695425,266.47861314233825 L415.1592821586308,261.2609496960172 M415.1592821586308,261.2609496960172 L420.02040998679485,255.7799641536605 M420.02040998679485,255.7799641536605 L424.0297677579765,250.07826834268434 M424.0297677579765,250.07826834268434 L427.1582216382428,244.20002563632494 M427.1582216382428,244.20002563632494 L429.3835385404276,238.19059188595804 M429.3835385404276,238.19059188595804 L430.6905217187051,232.09614740675192 M430.6905217187051,232.09614740675192 L431.07106795619313,225.96334733279912 M431.07106795619313,225.96334733279912 L430.5241906844618,219.8389433030569 M430.5241906844618,219.8389433030569 L429.05592987110595,213.76943190012344 M429.05592987110595,213.76943190012344 L426.6792888010161,207.80071078450908 M426.6792888010161,207.80071078450908 L423.4140616928896,201.97772346888968 M423.4140616928896,201.97772346888968 L419.28663723728425,196.34414715694697 M419.28663723728425,196.34414715694697 L414.32973673468587,190.9420757055562 M414.32973673468587,190.9420757055562 L408.58214795125343,185.81172339428645 M408.58214795125343,185.81172339428645 L402.0883888790815,180.9911400511719 M402.0883888790815,180.9911400511719 L394.8983471240706,176.51596181445075 M9.751170039889757,404.8184341944208 L28.43053134404545,387.95515334280185 M28.43053134404545,387.95515334280185 L36.28266458113478,392.2529813891314 M36.28266458113478,392.2529813891314 L44.76215395479335,396.12914063154903 M44.76215395479335,396.12914063154903 L53.8039668289199,399.55302987985397 M53.8039668289199,399.55302987985397 L63.338518919636954,402.4975291424835 M63.338518919636954,402.4975291424835 L73.29214837776533,404.93927364295905 M73.29214837776533,404.93927364295905 L83.58769384698786,406.8588829213512 M83.58769384698786,406.8588829213512 L94.14523941386733,408.2410538300103 M94.14523941386733,408.2410538300103 L104.88263033639873,409.07479368620045 M104.88263033639873,409.07479368620045 L115.71622206764908,409.3534611411676 M115.71622206764908,409.3534611411676 L126.56167779280179,409.07479368620045 M126.56167779280179,409.07479368620045 L137.33439699294888,408.2410577796568 M137.33439699294888,408.2410577796568 L147.9505008472875,406.8588829213512 M147.9505008472875,406.8588829213512 L158.32739514518397,404.9392854833292 M158.32739514518397,404.9392854833292 L168.38451279765746,402.4975232254661 M168.38451279765746,402.4975232254661 L178.04386026716332,399.5530219955889 M178.04386026716332,399.5530219955889 L187.2307788752787,396.12914260113564 M187.2307788752787,396.12914260113564 L195.8745403503142,392.252978437263 M195.8745403503142,392.252978437263 L203.90882989657285,387.95515334280185 M203.90882989657285,387.95515334280185 L198.80846688233436,391.025738812265 M198.80846688233436,391.025738812265 L193.71115039666915,394.2626491399718 M193.71115039666915,394.2626491399718 L188.62000790698113,397.6368945827278 M188.62000790698113,397.6368945827278 L183.5365740717371,401.12588074450355 M183.5365740717371,401.12588074450355 L176.02737506583048,406.46388465797634 M176.02737506583048,406.46388465797634 L168.53627909323598,411.97083346821944 M168.53627909323598,411.97083346821944 L161.06205770278063,417.61435022699857 M161.06205770278063,417.61435022699857 L153.60296115356883,423.3701947954463 M31.57213677857652,286.03055066069413 L24.195831821418324,290.61660061966904 M24.195831821418324,290.61660061966904 L17.51674812570195,295.55667648676354 M17.51674812570195,295.55667648676354 L11.586183679057513,300.8142654333839 M11.586183679057513,300.8142654333839 L6.45002082445842,306.3504010396898 M6.45002082445842,306.3504010396898 L2.148417878305281,312.1238825993837 M2.148417878305281,312.1238825993837 L-1.284519194529821,318.0915558866291 M-1.284519194529821,318.0915558866291 L-3.821138543577206,324.20868791302087 M-3.821138543577206,324.20868791302087 L-5.44038994750008,330.4292200045041 M-5.44038994750008,330.4292200045041 L-6.128116034427478,336.7061359038653 M-6.128116034427478,336.7061359038653 L-5.877072454261167,342.99173238786113 M-5.877072454261167,342.99173238786113 L-4.6872923201962635,349.23813877847203 M-4.6872923201962635,349.23813877847203 L-2.565921200312687,355.3975256879655 M-2.565921200312687,355.3975256879655 L0.4727225137298774,361.4225355002699 M0.4727225137298774,361.4225355002699 L4.4071016873868984,367.266695661816 M4.4071016873868984,367.266695661816 L9.208738603868824,372.88471021991006 M9.208738603868824,372.88471021991006 L14.842249667658109,378.2328946568937 M14.842249667658109,378.2328946568937 L21.265614977401412,383.2695275012993 M21.265614977401412,383.2695275012993 L28.43053134404545,387.95515334280185 M13.435817983141874,292.52522400585605 L31.57213677857652,286.03055066069413 M223.4932709321081,176.51596181445063 L31.57213677857652,286.03055066069413 M219.8668927125235,179.96166046412839 L96.79949223849866,250.19759493137548 M96.79949223849866,250.19759493137548 L97.27455613327845,290.2067598634464 M219.8668927125235,179.96166046412839 L220.0651326901272,219.8141570543761 M330.3854802026159,243.76674187761415 L336.05789282908813,240.10588578342384 M336.05789282908813,240.10588578342384 L341.0068273689328,236.11480533951038 M341.0068273689328,236.11480533951038 L345.17475273405967,231.84110987596733 M345.17475273405967,231.84110987596733 L348.5135856034269,227.3356463182006 M348.5135856034269,227.3356463182006 L350.98522463863327,222.6518592590416 M350.98522463863327,222.6518592590416 L352.56194133085637,217.8451406546215 M352.56194133085637,217.8451406546215 L353.22665165710794,212.9721587009796 M353.22665165710794,212.9721587009796 L352.9730437644175,208.09017606517392 M352.9730437644175,208.09017606517392 L351.80558278247463,203.256371402755 M351.80558278247463,203.256371402755 L349.7393950353303,198.52717893064778 M349.7393950353303,198.52717893064778 L346.8000239141818,193.95763560258524 M346.8000239141818,193.95763560258524 L343.0230587032567,189.6007482349318 M343.0230587032567,189.6007482349318 L338.45367848299327,185.5069122416054 M338.45367848299327,185.5069122416054 L333.14606937637984,181.72334043055946 M333.14606937637984,181.72334043055946 L327.1627713170308,178.29355242630504 M327.1627713170308,178.29355242630504 L320.5739262436175,175.2569025871743 M320.5739262436175,175.2569025871743 L313.4564565311971,172.64815823769948 M313.4564565311971,172.64815823769948 L305.8931772464653,170.49712793969093 M305.8931772464653,170.49712793969093 L297.9718658914133,168.8283534991158 M297.9718658914133,168.8283534991158 L289.7842533163397,167.66084660184492 M289.7842533163397,167.66084660184492 L281.42502441612044,167.00789882875642 M281.42502441612044,167.00789882875642 L272.9907562404416,166.8769379873401 M272.9907562404416,166.8769379873401 L264.5788469303713,167.26945156427752 M264.5788469303713,167.26945156427752 L256.2864540487302,168.18097502289828 M256.2864540487302,168.18097502289828 L248.20942056275481,169.60113799976352 M248.20942056275481,169.60113799976352 L240.4412094796981,171.51376759744983 M240.4412094796981,171.51376759744983 L233.07186580457494,173.89705928498438 M233.07186580457494,173.89705928498438 L226.18701767390434,176.72380047079633 M226.18701767390434,176.72380047079633 L219.8668927125235,179.96166046412839 M330.3854802026159,243.76674187761415 L330.3381194570521,283.7616646712768 M96.79949223849866,250.19759493137548 L91.02283575219337,253.86670279028414 M91.02283575219337,253.86670279028414 L85.95247132847112,257.8736277890154 M85.95247132847112,257.8736277890154 L81.6483253095455,262.1722159135679 M81.6483253095455,262.1722159135679 L78.16159645651032,266.71283816008724 M78.16159645651032,266.71283816008724 L75.5341942320174,271.44289981280355 M75.5341942320174,271.44289981280355 L73.79815874743645,276.3074490191249 M73.79815874743645,276.3074490191249 L72.97524023837605,281.24978658132443 M72.97524023837605,281.24978658132443 L73.07658071936169,286.2121207721369 M73.07658071936169,286.2121207721369 L74.10252259214946,291.13623352541623 M74.10252259214946,291.13623352541623 L76.04250994455043,295.96416719208787 M76.04250994455043,295.96416719208787 L78.87516925399024,300.6389018512905 M78.87516925399024,300.6389018512905 L82.56845579117225,305.10507882292717 M82.56845579117225,305.10507882292717 L87.08002505874583,309.30962486289286 M87.08002505874583,309.30962486289286 L92.35765962067495,313.2024408280078 M92.35765962067495,313.2024408280078 L98.33983074279547,316.7370249111189 M98.33983074279547,316.7370249111189 L104.95642898751828,319.8710469119653 M104.95642898751828,319.8710469119653 L112.1295844538572,322.56688658345143 M112.1295844538572,322.56688658345143 L119.77457313978175,324.7921313207171 M119.77457313978175,324.7921313207171 L127.80083639807322,326.51998384933114 M127.80083639807322,326.51998384933114 L136.11314386337295,327.7295964429554 M136.11314386337295,327.7295964429554 L144.61267574370322,328.40637249862687 M144.61267574370322,328.40637249862687 L153.19830829243864,328.54213485448815 M153.19830829243864,328.54213485448815 L161.7678476320726,328.13524833294196 M161.7678476320726,328.13524833294196 L170.21930580126832,327.19062750242426 M170.21930580126832,327.19062750242426 L178.45216176433524,325.7196773229442 M178.45216176433524,325.7196773229442 L186.36861834484006,323.7401446701672 M186.36861834484006,323.7401446701672 L193.87479048087368,321.2758934342384 M193.87479048087368,321.2758934342384 L200.88189501239538,318.35656963092106 M200.88189501239538,318.35656963092106 L207.30726380093876,315.0172598067004 M207.30726380093876,315.0172598067004 L207.53679937324745,355.1688241234964 M207.30726380093876,315.0172598067004 L330.3854802026159,243.76674187761415 M586.9566781219389,271.40084388648506 L569.1770973328873,275.9634028580588 M569.1770973328873,275.9634028580588 L561.1769984114579,271.77453689714997 M561.1769984114579,271.77453689714997 L552.5965622263842,268.00336838526266 M552.5965622263842,268.00336838526266 L543.500570060448,264.67752636403327 M543.500570060448,264.67752636403327 L533.9573719374117,261.8212984055168 M533.9573719374117,261.8212984055168 L524.0384855762853,259.45551905805524 M524.0384855762853,259.45551905805524 L513.8180265473981,257.5974048983284 M513.8180265473981,257.5974048983284 L503.3721829090722,256.26045763388726 M503.3721829090722,256.26045763388726 L492.778718279725,255.45439604653797 M492.778718279725,255.45439604653797 L482.1163882006026,255.18505880968888 M482.1163882006026,255.18505880968888 L471.4644352937322,255.45439604653797 M471.4644352937322,255.45439604653797 L460.9020205130829,256.2604614531241 M460.9020205130829,256.2604614531241 L450.5076940422391,257.5974048983284 M450.5076940422391,257.5974048983284 L440.35882545114316,259.45551905805524 M440.35882545114316,259.45551905805524 L430.5310924044071,261.8212964935319 M430.5310924044071,261.8212964935319 L421.0979438739739,264.6775225376314 M421.0979438739739,264.6775225376314 L412.13008173027447,268.00337029988015 M412.13008173027447,268.00337029988015 L403.69494482544695,271.77453785526217 M403.69494482544695,271.77453785526217 L395.85623846302195,275.9634028580587 M572.1157351570627,377.6590057880377 L579.2817261796986,372.9839638174253 M579.2817261796986,372.9839638174253 L585.7076992818768,367.9587016343703 M585.7076992818768,367.9587016343703 L591.3453279310085,362.6225843387341 M591.3453279310085,362.6225843387341 L596.1525569299114,357.017238113668 M596.1525569299114,357.017238113668 L600.0939556706106,351.1862479382153 M600.0939556706106,351.1862479382153 L603.1409881452001,345.17480680811684 M603.1409881452001,345.17480680811684 L605.2720485261652,339.0292819143315 M605.2720485261652,339.0292819143315 L606.4727396573824,332.796923786959 M606.4727396573824,332.796923786959 L606.7358280754129,326.52545395261404 M606.7358280754129,326.52545395261404 L606.0611846349003,320.26263543063556 M606.0611846349003,320.26263543063556 L604.455949824284,314.0560644584908 M604.455949824284,314.0560644584908 L601.9341708346469,307.9526521401728 M601.9341708346469,307.9526521401728 L598.51676850972,301.9983467043598 M598.51676850972,301.9983467043598 L594.2313147912046,296.2378047870799 M594.2313147912046,296.2378047870799 L589.111750839262,290.7140617273178 M589.111750839262,290.7140617273178 L583.1981215985255,285.4682347789848 M583.1981215985255,285.4682347789848 L576.5361808880401,280.53920434945803 M576.5361808880401,280.53920434945803 L569.1770973328873,275.9634028580588 M590.4088780654815,383.1650625799829 L572.1157351570627,377.6590057880377 M380.19050855006185,492.2129276554948 L572.1157351570627,377.6590057880377 M379.36330786558636,509.3589579649871 L380.19050855006185,492.2129276554948 M202.70375974513053,492.2129276554948 L210.72897727186006,496.60972571058767 M210.72897727186006,496.60972571058767 L219.38065630374825,500.57518563799977 M219.38065630374825,500.57518563799977 L228.59240934060028,504.07798116481615 M228.59240934060028,504.07798116481615 L238.29334516206393,507.09037010020825 M238.29334516206393,507.09037010020825 L248.40847816590127,509.5884297915902 M248.40847816590127,509.5884297915902 L258.85936683762185,511.55232116781485 M258.85936683762185,511.55232116781485 L269.5648595607456,512.9663782176284 M269.5648595607456,512.9663782176284 L280.44163167578125,513.8193528957255 M280.44163167578125,513.8193528957255 L291.40496168749837,514.1044672732893 M291.40496168749837,514.1044672732893 L302.3693902034707,513.8193528957255 M302.3693902034707,513.8193528957255 L313.2494487059605,512.9663782176284 M313.2494487059605,512.9663782176284 L323.960389585363,511.55232116781485 M323.960389585363,511.55232116781485 L334.4188313004681,509.5884378672422 M334.4188313004681,509.5884378672422 L344.5436025098364,507.09037010020825 M344.5436025098364,507.09037010020825 L354.25614462801514,504.07798116481626 M354.25614462801514,504.07798116481626 L363.481393426898,500.57518563799977 M363.481393426898,500.57518563799977 L372.14835079950393,496.60972571058767 M372.14835079950393,496.60972571058767 L380.19050855006185,492.2129276554948 M183.96014654597434,509.3589579649871 L202.70375974513053,492.2129276554948 M203.90882989657285,387.95515334280185 L196.53775180580362,392.64560959485186 M196.53775180580362,392.64560959485186 L189.8785521937055,397.69821200081867 M189.8785521937055,397.69821200081867 L183.98240925206505,403.0756287901311 M183.98240925206505,403.0756287901311 L178.8949809883802,408.7380174960158 M178.8949809883802,408.7380174960158 L174.65609727509968,414.64324880337495 M174.65609727509968,414.64324880337495 L171.299432787311,420.7471932981699 M171.299432787311,420.7471932981699 L168.8521073615059,427.0041044074296 M168.8521073615059,427.0041044074296 L167.33454103313704,433.36687694727595 M167.33454103313704,433.36687694727595 L166.7601658731026,439.78742339818086 M166.7601658731026,439.78742339818086 L167.135410008328,446.2169505483173 M167.135410008328,446.2169505483173 L168.45933154058332,452.60648683018076 M168.45933154058332,452.60648683018076 L170.72382200935226,458.9071157997463 M170.72382200935226,458.9071157997463 L173.91348600465113,465.0703766985091 M173.91348600465113,465.0703766985091 L178.00567205446032,471.04872929221244 M178.00567205446032,471.04872929221244 L182.97071541122642,476.7958264240267 M182.97071541122642,476.7958264240267 L188.77198419768814,482.266961129302 M188.77198419768814,482.266961129302 L195.3662069660612,487.419455832463 M195.3662069660612,487.419455832463 L202.70375974513053,492.2129276554948 M393.2513006818502,280.06071635645645 L270.17251045480754,351.89162767055666 M270.17251045480754,351.89162767055666 L270.26078048706296,392.12326266955347 M393.2513006818502,280.06071635645645 L393.0626705082756,320.1357470618507 M506.27871906126677,345.3142071532087 L511.9427075606244,341.5699572833947 M511.9427075606244,341.5699572833947 L516.8684475205449,337.48801625047525 M516.8684475205449,337.48801625047525 L520.9986635237145,333.1170613750426 M520.9986635237145,333.1170613750426 L524.2857674957347,328.50911696616765 M524.2857674957347,328.50911696616765 L526.6922771570645,323.7188367666238 M526.6922771570645,323.7188367666238 L528.1913061356582,318.80290089285756 M528.1913061356582,318.80290089285756 L528.7667024570139,313.819258913242 M528.7667024570139,313.819258913242 L528.413224226136,308.8264675486496 M528.413224226136,308.8264675486496 L527.1365503080357,303.88300834596004 M527.1365503080357,303.88300834596004 L524.9531169359524,299.04659382234763 M524.9531169359524,299.04659382234763 L521.8898687586718,294.37350681445554 M521.8898687586718,294.37350681445554 L517.9838481054697,289.91794096026774 M517.9838481054697,289.91794096026774 L513.2817653865952,285.73143183428897 M513.2817653865952,285.73143183428897 L507.83934996971004,281.86224580677543 M507.83934996971004,281.86224580677543 L501.72072167524766,278.35488285766615 M501.72072167524766,278.35488285766615 L494.9975845144977,275.2495734755566 M494.9975845144977,275.2495734755566 L487.7484203871011,272.58186674661204 M487.7484203871011,272.58186674661204 L480.0575478401755,270.3822299155798 M480.0575478401755,270.3822299155798 L472.01421813818956,268.6757582825364 M472.01421813818956,268.6757582825364 L463.7115425539522,267.48187899349875 M463.7115425539522,267.48187899349875 L455.2455224949091,266.81418216809976 M455.2455224949091,266.81418216809976 L446.71395186756456,266.68026172326057 M446.71395186756456,266.68026172326057 L438.21534513917857,267.0816439858286 M438.21534513917857,267.0816439858286 L429.8478326606212,268.0137574691971 M429.8478326606212,268.0137574691971 L421.70810996669877,269.46599927016257 M421.70810996669877,269.46599927016257 L413.8903700511813,271.42184434707946 M413.8903700511813,271.42184434707946 L406.4852043041276,273.8589891440078 M406.4852043041276,273.8589891440078 L399.5786911801974,276.7496337696823 M399.5786911801974,276.7496337696823 L393.2513006818502,280.06071635645645 M506.27871906126677,345.3142071532087 L505.83324334865586,385.5316094312507 M270.17251045480754,351.89162767055666 L264.4020530670669,355.6444051742749 M264.4020530670669,355.6444051742749 L259.3524449746012,359.74274326328066 M259.3524449746012,359.74274326328066 L255.0834127582417,364.13945453022257 M255.0834127582417,364.13945453022257 L251.64574234519705,368.7837663908673 M251.64574234519705,368.7837663908673 L249.0808274183962,373.6219043889215 M249.0808274183962,373.6219043889215 L247.42000031003005,378.5976591482304 M247.42000031003005,378.5976591482304 L246.68417132089434,383.6530412334313 M246.68417132089434,383.6530412334313 L246.88351193829396,388.72894679073534 M246.88351193829396,388.72894679073534 L248.01723975200673,393.765819091029 M248.01723975200673,393.765819091029 L250.073562828307,398.7043697633237 M250.073562828307,398.7043697633237 L253.02976181704037,403.4862648367234 M253.02976181704037,403.4862648367234 L256.85237305721733,408.05487799255025 M256.85237305721733,408.05487799255025 L261.49753195215334,412.35590365520477 M261.49753195215334,412.35590365520477 L266.91146513637176,416.3380900809742 M266.91146513637176,416.3380900809742 L273.03102777250587,419.95385235987294 M273.03102777250587,419.95385235987294 L279.784489841337,423.1598819626329 M279.784489841337,423.1598819626329 L287.0923434002417,425.9176786602528 M287.0923434002417,425.9176786602528 L294.86826569485004,428.1940817926885 M294.86826569485004,428.1940817926885 L303.02011606413066,429.96166272776213 M303.02011606413066,429.96166272776213 L311.4511672373084,431.1990955550998 M311.4511672373084,431.1990955550998 L320.06116278762204,431.8914400696749 M320.06116278762204,431.8914400696749 L328.7476434856372,432.0303272218541 M328.7476434856372,432.0303272218541 L337.4071868074794,431.6140776639421 M337.4071868074794,431.6140776639421 L345.93673097211837,430.64772869178444 M345.93673097211837,430.64772869178444 L354.2348299569507,429.1429614356947 M354.2348299569507,429.1429614356947 L362.2028618072836,427.1179128245933 M362.2028618072836,427.1179128245933 L369.74634899552024,424.5970169975542 M369.74634899552024,424.5970169975542 L376.7760474317542,421.6105984197917 M376.7760474317542,421.6105984197917 L383.20907353045527,418.1945856763839 M383.20907353045527,418.1945856763839 L383.04043613959055,458.5684847369206 M383.20907353045527,418.1945856763839 L506.27871906126677,345.3142071532087 M223.4932709321081,176.51596181445063 L222.94797522359954,167.77001411999214 M386.00358142114237,167.77001411999214 L378.55733214837903,163.87652420561085 M378.55733214837903,163.87652420561085 L370.5567212874771,160.37109395435255 M370.5567212874771,160.37109395435255 L362.0621759336603,157.2794616321366 M362.0621759336603,157.2794616321366 L353.13761982503553,154.62427072213586 M353.13761982503553,154.62427072213586 L343.84999722116964,152.42492739510936 M343.84999722116964,152.42492739510936 L334.26877723366874,150.69749034744507 M334.26877723366874,150.69749034744507 L324.4654887235819,149.45454676707743 M324.4654887235819,149.45454676707743 L314.5132086729078,148.70514239021395 M314.5132086729078,148.70514239021395 L304.4860316200634,148.45473319230763 M304.4860316200634,148.45473319230763 L294.4585951619809,148.70514239021395 M294.4585951619809,148.70514239021395 L284.5055192322088,149.45454676707743 M284.5055192322088,149.45454676707743 L274.7009106967177,150.69749034744507 M274.7009106967177,150.69749034744507 L265.1178561442186,152.42492739510936 M265.1178561442186,152.42492739510936 L255.82789780354983,154.62427072213586 M255.82789780354983,154.62427072213586 L246.90052184090285,157.2794616321366 M246.90052184090285,157.2794616321366 L238.4026939469827,160.37109348599813 M238.4026939469827,160.37109348599813 L230.39835944317753,163.87652420561074 M230.39835944317753,163.87652420561074 L222.94797522359954,167.77001411999214 M394.8983471240706,176.51596181445075 L386.00358142114237,167.77001411999214 M386.8197942209791,262.2287604199816 L393.6465694101428,257.88917201808823 M393.6465694101428,257.88917201808823 L399.7847483038316,253.224204402979 M399.7847483038316,253.224204402979 L405.18807544709045,248.27032016514363 M405.18807544709045,248.27032016514363 L409.816186249855,243.06612254961368 M409.816186249855,243.06612254961368 L413.63487594898623,237.6520320295429 M413.63487594898623,237.6520320295429 L416.61630778596066,232.06994247579922 M416.61630778596066,232.06994247579922 L418.73922484355603,226.36289792060256 M418.73922484355603,226.36289792060256 L419.98905107142144,220.57474302124984 M419.98905107142144,220.57474302124984 L420.35793890298606,214.74976940234706 M420.35793890298606,214.74976940234706 L419.8447936151527,208.932376353452 M419.8447936151527,208.932376353452 L418.4552336029123,203.16674412495826 M418.4552336029123,203.16674412495826 L416.20149145207256,197.49647633909524 M416.20149145207256,197.49647633909524 L413.10225572507017,191.96430036107535 M413.10225572507017,191.96430036107535 L409.1824971086572,186.61174380230466 M409.1824971086572,186.61174380230466 L404.4732532956852,181.47883113831773 M404.4732532956852,181.47883113831773 L399.0113186656628,176.60381657812115 M399.0113186656628,176.60381657812115 L392.8389601967634,172.02290848636574 M392.8389601967634,172.02290848636574 L386.00358142114237,167.77001411999214 M395.85623846302195,275.9634028580587 L386.8197942209791,262.2287604199816 M203.90882989657285,387.95515334280185 L204.32675831934432,368.47954833738186 M37.58935551882928,368.47954833738186 L45.05430258724465,372.55445959994756 M45.05430258724465,372.55445959994756 L53.114586986636596,376.22941971285525 M53.114586986636596,376.22941971285525 L61.708462833832584,379.4754428011016 M61.708462833832584,379.4754428011016 L70.76975921291034,382.2669048447708 M70.76975921291034,382.2669048447708 L80.2285877784334,384.58166617729273 M80.2285877784334,384.58166617729273 L90.01169079018462,386.4013854690804 M90.01169079018462,386.4013854690804 L100.04312345738083,387.7116390425949 M100.04312345738083,387.7116390425949 L110.24500126431599,388.5019726863693 M110.24500126431599,388.5019726863693 L120.53794299324602,388.7661139141003 M120.53794299324602,388.7661139141003 L130.8418084239603,388.5019667736814 M130.8418084239603,388.5019667736814 L141.07639715033213,387.7116390425949 M141.07639715033213,387.7116390425949 L151.16213881248464,386.40139334902904 M151.16213881248464,386.40139334902904 L161.02060555209056,384.5816622388928 M161.02060555209056,384.5816622388928 L170.57528824359588,382.2668969719749 M170.57528824359588,382.2668969719749 L179.7522246063442,379.47545361955804 M179.7522246063442,379.47545361955804 L188.4805395643715,376.2294265924173 M188.4805395643715,376.2294265924173 L196.6930365386596,372.55446598295225 M196.6930365386596,372.55446598295225 L204.32675831934432,368.47954833738186 M28.43053134404545,387.95515334280185 L37.58935551882928,368.47954833738186 M40.47870498646785,271.7851687863075 L33.47040217884302,276.1382053245542 M33.47040217884302,276.1382053245542 L27.12564008680573,280.827031694132 M27.12564008680573,280.827031694132 L21.493120561557532,285.81695477754397 M21.493120561557532,285.81695477754397 L16.616409686647557,291.0709211861772 M16.616409686647557,291.0709211861772 L12.533577578960376,296.54978631542366 M12.533577578960376,296.54978631542366 L9.276900277247364,302.2125984886588 M9.276900277247364,302.2125984886588 L6.872573288763363,308.0168527418235 M6.872573288763363,308.0168527418235 L5.340495279492075,313.918796164667 M5.340495279492075,313.918796164667 L4.693969225457863,319.8738208339213 M4.693969225457863,319.8738208339213 L4.939673391157555,325.8367104176076 M4.939673391157555,325.8367104176076 L6.077506546875156,331.76199437759897 M6.077506546875156,331.76199437759897 L8.100548753765736,337.60431537542394 M8.100548753765736,337.60431537542394 L10.99495600543679,343.31882748157125 M10.99495600543679,343.31882748157125 L14.740220832195291,348.8614356496952 M14.740220832195291,348.8614356496952 L19.309150656878785,354.1892198846997 M19.309150656878785,354.1892198846997 L24.66795946324487,359.2608335407052 M24.66795946324487,359.2608335407052 L30.776697812641657,364.03672029774316 M30.776697812641657,364.03672029774316 L37.58935551882928,368.47954833738186 M31.57213677857652,286.03055066069413 L40.47870498646785,271.7851687863075 M222.94797522359954,167.77001411999214 L40.47870498646785,271.7851687863075 M221.41049662966225,163.36304443690364 L67.57767240785927,251.00210369997706 M67.57767240785927,251.00210369997706 L60.98286604209687,255.14084604233244 M60.98286604209687,255.14084604233244 L55.10481758663036,259.6316493731991 M55.10481758663036,259.6316493731991 L50.00060681879927,264.4322515785906 M50.00060681879927,264.4322515785906 L45.720213374030436,269.4973222175664 M45.720213374030436,269.4973222175664 L42.30590811293098,274.7788957732276 M42.30590811293098,274.7788957732276 L39.79195713391675,280.226752661989 M39.79195713391675,280.226752661989 L38.20408341179791,285.78893835412083 M38.20408341179791,285.78893835412083 L37.559273646204645,291.4121867629527 M37.559273646204645,291.4121867629527 L37.8654845543432,297.04247078711734 M37.8654845543432,297.04247078711734 L39.121567797781836,302.6254584961397 M39.121567797781836,302.6254584961397 L41.31712018552247,308.1071094121893 M41.31712018552247,308.1071094121893 L44.43259528064215,313.4341503190554 M44.43259528064215,313.4341503190554 L48.439388684492314,318.55463646610934 M48.439388684492314,318.55463646610934 L53.30008447177124,323.4184537730524 M53.30008447177124,323.4184537730524 L58.968748315105586,327.9778494599799 M58.968748315105586,327.9778494599799 L65.3913302599554,332.18793057075777 M65.3913302599554,332.18793057075777 L72.50620127516135,336.0071099529812 M72.50620127516135,336.0071099529812 L80.2446888662289,339.39757584768813 M80.2446888662289,339.39757584768813 L88.53179352090831,342.32566833280436 M88.53179352090831,342.32566833280436 L97.28688645528666,344.7622645634815 M97.28688645528666,344.7622645634815 L106.42452369799742,346.68309263357014 M106.42452369799742,346.68309263357014 L115.85534278453792,348.0689848198356 M115.85534278453792,348.0689848198356 L125.48693730376306,348.90610310031013 M125.48693730376306,348.90610310031013 L135.22486093291002,349.186068233744 M135.22486093291002,349.186068233744 L144.97350761270388,348.90609721924193 M144.97350761270388,348.90609721924193 L154.6372247223012,348.068980899847 M154.6372247223012,348.068980899847 L164.12120105312434,346.68309263357014 M164.12120105312434,346.68309263357014 L173.33253473736573,344.7622577085034 M173.33253473736573,344.7622577085034 L182.18108914297238,342.3256663752918 M182.18108914297238,342.3256663752918 L190.58052299624381,339.3975709570682 M190.58052299624381,339.3975709570682 L198.4490779862408,336.00710921993715 M198.4490779862408,336.00710921993715 L205.7104547308238,332.18793057075777 M205.7104547308238,332.18793057075777 L359.56018354365864,242.96353392324323 M359.56018354365864,242.96353392324323 L366.0085675922814,238.83600986061373 M366.0085675922814,238.83600986061373 L371.71790392973594,234.36597482462662 M371.71790392973594,234.36597482462662 L376.6337323675432,229.59744018034291 M376.6337323675432,229.59744018034291 L380.7095455219653,224.57721015583843 M380.7095455219653,224.57721015583843 L383.9072241580373,219.3544094045526 M383.9072241580373,219.3544094045526 L386.19733073386686,213.97996037004555 M386.19733073386686,213.97996037004555 L387.55935778730486,208.50608756934503 M387.55935778730486,208.50608756934503 L387.98186923401687,202.98578780982848 M387.98186923401687,202.98578780982848 L387.46252641737556,197.4723082465299 M387.46252641737556,197.4723082465299 L386.00806772046485,192.0186367824399 M386.00806772046485,192.0186367824399 L383.6341485725829,186.67699587518894 M383.6341485725829,186.67699587518894 L380.3651622222003,181.49834236733705 M380.3651622222003,181.49834236733705 L376.23391132171685,176.53190955848015 M376.23391132171685,176.53190955848015 L371.28127276703384,171.82474796042038 M371.28127276703384,171.82474796042038 L365.55574136812584,167.4213095418475 M365.55574136812584,167.4213095418475 L359.11294745072433,163.36304443690364 M359.11294745072433,163.36304443690364 L352.0150892625241,159.6880489390466 M352.0150892625241,159.6880489390466 L344.33034646024925,156.4307252891116 M344.33034646024925,156.4307252891116 L336.1322119409849,153.62149796515598 M336.1322119409849,153.62149796515598 L327.49882263107077,151.2865484191679 M327.49882263107077,151.2865484191679 L318.51222273763625,149.44760408093265 M318.51222273763625,149.44760408093265 L309.25762829194787,148.12174528947304 M309.25762829194787,148.12174528947304 L299.82263975329107,147.3212819776466 M299.82263975329107,147.3212819776466 L290.2964799862563,147.053632157555 M290.2964799862563,147.053632157555 L280.7691810523109,147.32128104055442 M280.7691810523109,147.32128104055442 L271.3307806860788,148.12174435221164 M271.3307806860788,148.12174435221164 L262.0705300986574,149.44760220584936 M262.0705300986574,149.44760220584936 L253.0760944860864,151.2865488881331 M253.0760944860864,151.2865488881331 L244.43275012813882,153.62149626426225 M244.43275012813882,153.62149626426225 L236.2226457768213,156.43072505435697 M236.2226457768213,156.43072505435697 L228.524019227554,159.68804870411975 M228.524019227554,159.68804870411975 L221.41049662966225,163.36304443690364 M395.85623846302195,275.9634028580587 L395.5411581249942,267.25591582375733 M560.4217242396869,267.25591582375733 L552.8149138218278,263.27480144246596 M552.8149138218278,263.27480144246596 L544.6553127342224,259.6905152268676 M544.6553127342224,259.6905152268676 L536.0045263080123,256.5293621605203 M536.0045263080123,256.5293621605203 L526.927637387729,253.81448716700805 M526.927637387729,253.81448716700805 L517.4927081256477,251.56572161031698 M517.4927081256477,251.56572161031698 L507.77027286708005,249.79946861261186 M507.77027286708005,249.79946861261186 L497.8329127672463,248.52860327841228 M497.8329127672463,248.52860327841228 L487.7546790476921,247.76236795193466 M487.7546790476921,247.76236795193466 L477.61057965870464,247.50633638241032 M477.61057965870464,247.50633638241032 L467.47609264193113,247.76236604146754 M467.47609264193113,247.76236604146754 L457.4266329473729,248.52860327841228 M457.4266329473729,248.52860327841228 L447.53700239574175,249.79946861261186 M447.53700239574175,249.79946861261186 L437.8809083811991,251.5657177861416 M437.8809083811991,251.5657177861416 L428.5304288491393,253.81448716700794 M428.5304288491393,253.81448716700794 L419.5554968358739,256.52936503182605 M419.5554968358739,256.52936503182605 L411.0234338037904,259.6905176213076 M411.0234338037904,259.6905176213076 L402.9984467876303,263.2748038388177 M402.9984467876303,263.2748038388177 L395.5411581249942,267.25591582375733 M569.1770973328873,275.9634028580588 L560.4217242396869,267.25591582375733 M563.1216266062812,363.8523962555781 L569.9394555670352,359.4140893293835 M569.9394555670352,359.4140893293835 L576.0543751413296,354.6430596608617 M576.0543751413296,354.6430596608617 L581.4203232246114,349.57660206254366 M581.4203232246114,349.57660206254366 L585.9972958080803,344.25423070747854 M585.9972958080803,344.25423070747854 L589.751442249642,338.71725030347767 M589.751442249642,338.71725030347767 L592.6554996219356,333.0085369073744 M592.6554996219356,333.0085369073744 L594.6888843137131,327.1721405340324 M594.6888843137131,327.1721405340324 L595.8376712512494,321.25286142910716 M595.8376712512494,321.25286142910716 L596.0948516017802,315.2960127843625 M596.0948516017802,315.2960127843625 L595.460244609287,309.3470132392705 M595.460244609287,309.3470132392705 L593.9404129445809,303.451031504226 M593.9404129445809,303.451031504226 L591.5486090829818,297.65265180535255 M591.5486090829818,297.65265180535255 L588.3045950877,291.9955598495811 M588.3045950877,291.9955598495811 L584.2344833618093,286.5222257106872 M584.2344833618093,286.5222257106872 L579.3704533733527,281.27356009905077 M579.3704533733527,281.27356009905077 L573.7504794012542,276.288668555873 M573.7504794012542,276.288668555873 L567.4180331443758,271.6045675795032 M567.4180331443758,271.6045675795032 L560.4217242396869,267.25591582375733 M572.1157351570627,377.6590057880377 L563.1216266062812,363.8523962555781 M380.64853723097366,472.53525523408837 L563.1216266062812,363.8523962555781 M380.19050855006185,492.2129276554948 L380.64853723097366,472.53525523408837 M212.00234644155722,472.53525523408837 L219.6318805478257,476.7040225380939 M219.6318805478257,476.7040225380939 L227.85587813666666,480.4636616901803 M227.85587813666666,480.4636616901803 L236.61132048209947,483.78450868292305 M236.61132048209947,483.78450868292305 L245.8307676801826,486.64033526420053 M245.8307676801826,486.64033526420053 L255.4430913965095,489.0084832428605 M255.4430913965095,489.0084832428605 L265.37383770469955,490.8701886382149 M265.37383770469955,490.8701886382149 L275.54587278202104,492.21067587428547 M275.54587278202104,492.21067587428547 L285.8801996256306,493.01924632512475 M285.8801996256306,493.01924632512475 L296.29638738084157,493.289481580494 M296.29638738084157,493.289481580494 L306.7133317567089,493.01924632512475 M306.7133317567089,493.01924632512475 L317.0499089177176,492.2106839383945 M317.0499089177176,492.2106839383945 L327.2257107365007,490.8701886382149 M327.2257107365007,490.8701886382149 L337.16166955760445,489.0084832428605 M337.16166955760445,489.0084832428605 L346.7806237547534,486.64033526420064 M346.7806237547534,486.64033526420064 L356.00806686506365,483.78450868292305 M356.00806686506365,483.78450868292305 L364.7728071143845,480.4636616901803 M364.7728071143845,480.4636616901803 L373.0073311633625,476.7040225380939 M373.0073311633625,476.7040225380939 L380.64853723097366,472.53525523408837 M202.70375974513053,492.2129276554948 L212.00234644155722,472.53525523408837 M213.04799961623746,373.626359660218 L206.0447706752666,378.0785726098276 M206.0447706752666,378.0785726098276 L199.7190385277371,382.8742803876132 M199.7190385277371,382.8742803876132 L194.1193889349404,387.97801056093954 M194.1193889349404,387.97801056093954 L189.28917174119465,393.3518755214517 M189.28917174119465,393.3518755214517 L185.26614152123824,398.95584726548134 M185.26614152123824,398.95584726548134 L182.08216119169083,404.74804764537816 M182.08216119169083,404.74804764537816 L179.76291671644293,410.68500761607186 M179.76291671644293,410.68500761607186 L178.3277036572416,416.7219792736996 M178.3277036572416,416.7219792736996 L177.7891385427464,422.8133415315938 M177.7891385427464,422.8133415315938 L178.15310351472556,428.91283435541584 M178.15310351472556,428.91283435541584 L179.41864595773524,434.97395077969463 M179.41864595773524,434.97395077969463 L181.57791181230556,440.95029291125786 M181.57791181230556,440.95029291125786 L184.61605264270617,446.79598332697867 M184.61605264270617,446.79598332697867 L188.51146966450688,452.4658962185798 M188.51146966450688,452.4658962185798 L193.23585802070238,457.91612647135776 M193.23585802070238,457.91612647135776 L198.7542597701369,463.1043695000808 M198.7542597701369,463.1043695000808 L205.0255066903095,467.990146041795 M205.0255066903095,467.990146041795 L212.00234644155722,472.53525523408837 M203.90882989657285,387.95515334280185 L213.04799961623746,373.626359660218 M394.48527416573165,263.08702729462135 L240.63513875483375,352.7144797577613 M240.63513875483375,352.7144797577613 L234.04627054358434,356.94761453404067 M234.04627054358434,356.94761453404067 L228.18908674781488,361.5408898497034 M228.18908674781488,361.5408898497034 L223.120496362835,366.45109073474475 M223.120496362835,366.45109073474475 L218.89017216063905,371.6318625017543 M218.89017216063905,371.6318625017543 L215.53994985437032,377.0341573224059 M215.53994985437032,377.0341573224059 L213.10350886046973,382.6066077086182 M213.10350886046973,382.6066077086182 L211.60587061092355,388.29607681680307 M211.60587061092355,388.29607681680307 L211.06321064318638,394.0480912740576 M211.06321064318638,394.0480912740576 L211.48253455345127,399.8073823688254 M211.48253455345127,399.8073823688254 L212.8616534754284,405.5183783132087 M212.8616534754284,405.5183783132087 L215.18899631611293,411.12578646630516 M215.18899631611293,411.12578646630516 L218.44380301005754,416.57512287594204 M218.44380301005754,416.57512287594204 L222.59610844403983,421.8132200331156 M222.59610844403983,421.8132200331156 L227.6071399558635,426.78882348697925 M227.6071399558635,426.78882348697925 L233.4294988417995,431.45306122371255 M233.4294988417995,431.45306122371255 L240.00765292691239,435.7599992005247 M240.00765292691239,435.7599992005247 L247.27846032702223,439.6670819594078 M247.27846032702223,439.6670819594078 L255.17172399478318,443.1356158483118 M255.17172399478318,443.1356158483118 L263.61092757835337,446.13115697470187 M263.61092757835337,446.13115697470187 L272.5139214953055,448.6238896169124 M272.5139214953055,448.6238896169124 L281.79382937865216,450.5889931689203 M281.79382937865216,450.5889931689203 L291.3598351383491,452.0068273094545 M291.3598351383491,452.0068273094545 L301.1182130564124,452.86324627142335 M301.1182130564124,452.86324627142335 L310.9732334159812,453.1496640365781 M310.9732334159812,453.1496640365781 L320.8281427934201,452.86324627142335 M320.8281427934201,452.86324627142335 L330.58618886335023,452.0068273094545 M330.58618886335023,452.0068273094545 L340.1516452358508,450.5889931689203 M340.1516452358508,450.5889931689203 L349.4307916741875,448.6238896169124 M349.4307916741875,448.6238896169124 L358.33281969861486,446.13115697470187 M358.33281969861486,446.13115697470187 L366.7708625597182,443.1356158483118 M366.7708625597182,443.1356158483118 L374.66278222816743,439.6670819594078 M374.66278222816743,439.6670819594078 L381.93207569855724,435.7599992005247 M381.93207569855724,435.7599992005247 L535.7679264092427,344.492700559107 M535.7679264092427,344.492700559107 L542.2072585580379,340.27116976954113 M542.2072585580379,340.27116976954113 L547.8923054828462,335.6993806968385 M547.8923054828462,335.6993806968385 L552.768858772013,330.8223498495019 M552.768858772013,330.8223498495019 L556.7908329580137,325.6879604201175 M556.7908329580137,325.6879604201175 L559.9206686952695,320.34646296148037 M559.9206686952695,320.34646296148037 L562.1296253650784,314.8499443602946 M562.1296253650784,314.8499443602946 L563.3980284045355,309.2518244051704 M563.3980284045355,309.2518244051704 L563.7153600818326,303.6062904162892 M563.7153600818326,303.6062904162892 L563.0803728568179,297.96781965479073 M563.0803728568179,297.96781965479073 L561.5009321995968,292.390586274733 M561.5009321995968,292.390586274733 L558.9939454576474,286.9280019609433 M558.9939454576474,286.9280019609433 L555.5850834251912,281.6321552233235 M555.5850834251912,281.6321552233235 L551.3085516139071,276.55340816296285 M551.3085516139071,276.55340816296285 L546.2066011844295,271.7398470108621 M546.2066011844295,271.7398470108621 L540.329184111729,267.2369291031718 M540.329184111729,267.2369291031718 L533.7333805129028,263.08702729462135 M533.7333805129028,263.08702729462135 L526.4828448921288,259.32908620573465 M526.4828448921288,259.32908620573465 L518.647202429394,255.99827269859605 M518.647202429394,255.99827269859605 L510.30136402368703,253.12568413917728 M510.30136402368703,253.12568413917728 L501.52487189249337,250.7380932502047 M501.52487189249337,250.7380932502047 L492.4010748574037,248.8576894126885 M492.4010748574037,248.8576894126885 L483.01650603592066,247.5019528695334 M483.01650603592066,247.5019528695334 L473.459945646582,246.68344937169917 M473.459945646582,246.68344937169917 L463.8217612087427,246.40977040586677 M463.8217612087427,246.40977040586677 L454.19301322851356,246.68345032990754 M454.19301322851356,246.68345032990754 L444.66468973976305,247.50195574468336 M444.66468973976305,247.50195574468336 L435.32686331694777,248.8576951647271 M435.32686331694777,248.8576951647271 L426.26792127817214,250.73809085251696 M426.26792127817214,250.73809085251696 L417.5737566066337,253.12568431909955 M417.5737566066337,253.12568431909955 L409.326991356619,255.99827149834596 M409.326991356619,255.99827149834596 L401.6062149938533,259.3290852448219 M401.6062149938533,259.3290852448219 L394.48527416573165,263.08702729462135 M222.94797522359954,167.77001411999214 L221.41049662966225,163.36304443690364 M386.00358142114237,167.77001411999214 L359.11294745072433,163.36304443690364 M386.8197942209791,262.2287604199816 L359.56018354365864,242.96353392324323 M395.85623846302195,275.9634028580587 L203.90882989657285,387.95515334280185 M204.32675831934432,368.47954833738186 L386.8197942209791,262.2287604199816 M204.32675831934432,368.47954833738186 L205.7104547308238,332.18793057075777 M37.58935551882928,368.47954833738186 L65.3913302599554,332.18793057075777 M40.47870498646785,271.7851687863075 L67.57767240785927,251.00210369997706 M395.5411581249942,267.25591582375733 L213.04799961623746,373.626359660218 M395.5411581249942,267.25591582375733 L394.48527416573165,263.08702729462135 M560.4217242396869,267.25591582375733 L533.7333805129028,263.08702729462135 M563.1216266062812,363.8523962555781 L535.7679264092427,344.492700559107 M380.64853723097366,472.53525523408837 L381.93207569855724,435.7599992005247 M212.00234644155722,472.53525523408837 L240.00765292691239,435.7599992005247 M213.04799961623746,373.626359660218 L240.63513875483375,352.7144797577613 M592.192959687282,384.1938451836256 L381.14794265299827,510.4164598892951 M381.14794265299827,510.4164598892951 L399.82815825997443,503.8271672470762 M591.7478434483002,388.9860498730984 L399.82815825997443,503.8271672470762 M592.192959687282,384.1938451836256 L591.7478434483002,388.9860498730984 M381.14794265299827,510.4164598892951 L373.4474396847008,515.4214260238208 M373.4474396847008,515.4214260238208 L366.46192453155624,520.7958117022456 M366.46192453155624,520.7958117022456 L360.23964265405283,526.5041282086523 M360.23964265405283,526.5041282086523 L354.82393958768637,532.5085145889008 M354.82393958768637,532.5085145889008 L350.2528961975283,538.7689978469147 M350.2528961975283,538.7689978469147 L346.5591706892584,545.2437892175358 M346.5591706892584,545.2437892175358 L343.7696537283054,551.8894305297947 M343.7696537283054,551.8894305297947 L341.9052517609009,558.6611242308594 M341.9052517609009,558.6611242308594 L340.98060863795115,565.5130699352236 M340.98060863795115,565.5130699352236 L341.0041757217321,572.3986609154832 M341.0041757217321,572.3986609154832 L341.9778978862231,579.2709161783511 M341.9778978862231,579.2709161783511 L343.8971421444355,586.0826750524718 M343.8971421444355,586.0826750524718 L346.7508737091507,592.7870446850189 M346.7508737091507,592.7870446850189 L350.5214513770425,599.3376257858316 M350.5214513770425,599.3376257858316 L355.1847829414711,605.6888929394308 M355.1847829414711,605.6888929394308 L360.71043259141794,611.7965820344111 M360.71043259141794,611.7965820344111 L367.06187254985605,617.6179024728062 M367.06187254985605,617.6179024728062 L374.1965530888099,623.1119024857744 M374.1965530888099,623.1119024857744 L382.066285137043,628.239855527412 M382.066285137043,628.239855527412 L390.6174689445396,632.9654513609025 M390.6174689445396,632.9654513609025 L399.79150052609884,637.2551209831461 M399.79150052609884,637.2551209831461 L409.5252458254392,641.078329194734 M409.5252458254392,641.078329194734 L419.75130667245446,644.4077669232595 M419.75130667245446,644.4077669232595 L430.39862966250473,647.2196410621649 M430.39862966250473,647.2196410621649 L441.39309711950955,649.493778460177 M441.39309711950955,649.493778460177 L452.65788188917213,651.2138417651564 M452.65788188917213,651.2138417651564 L464.11411254585175,652.3674569297867 M464.11411254585175,652.3674569297867 L475.6815464528636,652.9463678424449 M475.6815464528636,652.9463678424449 L487.27899664295126,652.9463678424449 M487.27899664295126,652.9463678424449 L498.8251509616597,652.3674569297867 M498.8251509616597,652.3674569297867 L510.23897707002743,651.2138417651564 M510.23897707002743,651.2138417651564 L521.4405358092497,649.493778460177 M521.4405358092497,649.493778460177 L532.3513826921858,647.2196244422665 M532.3513826921858,647.2196244422665 L542.8954027280136,644.4077835331827 M542.8954027280136,644.4077835331827 L552.9990522957658,641.078329194734 M552.9990522957658,641.078329194734 L562.5922642333013,637.2551209831461 M562.5922642333013,637.2551209831461 L571.6086018483218,632.9654265068609 M571.6086018483218,632.9654265068609 L579.9860967909914,628.2398555274121 M579.9860967909914,628.2398555274121 L790.9344876136009,498.7972490041518 M790.9344876136009,498.7972490041518 L798.3952969423218,493.81025999262044 M798.3952969423218,493.81025999262044 L805.1100015577259,488.46722417430624 M805.1100015577259,488.46722417430624 L811.0332141253483,482.8057624815257 M811.0332141253483,482.8057624815257 L816.1254484086533,476.8656957828987 M816.1254484086533,476.8656957828987 L820.3530399329618,470.68857141940157 M820.3530399329618,470.68857141940157 L823.6886880618918,464.3175355013551 M823.6886880618918,464.3175355013551 L826.111178723183,457.79677977259564 M826.111178723183,457.79677977259564 L827.6058475721762,451.17142929662805 M827.6058475721762,451.17142929662805 L828.1644698579134,444.4871225208735 M828.1644698579134,444.4871225208735 L827.7852500165393,437.7897003019847 M827.7852500165393,437.7897003019847 L826.4728171405544,431.1248643403394 M826.4728171405544,431.1248643403394 L824.2381768233989,424.5379678388963 M824.2381768233989,424.5379678388963 L821.098448569838,418.0735515126852 M821.098448569838,418.0735515126852 L817.0768528691227,411.77519589635506 M817.0768528691227,411.77519589635506 L812.2024243079774,405.6851896413551 M812.2024243079774,405.6851896413551 L806.5097663310302,399.84421592928925 M806.5097663310302,399.84421592928925 L800.038793852847,394.2911544903832 M800.038793852847,394.2911544903832 L792.8344835844399,389.06285601308537 M792.8344835844399,389.06285601308537 L784.9464369164535,384.1938451836256 M784.9464369164535,384.1938451836256 L776.4286376916449,379.71620679615546 M776.4286376916449,379.71620679615546 L767.3390605311245,375.65934316798496 M767.3390605311245,375.65934316798496 L757.7391873366602,372.049794537995 M757.7391873366602,372.049794537995 L747.6937598714796,368.91114839836564 M747.6937598714796,368.91114839836564 L737.2702305958903,366.2638448177411 M737.2702305958903,366.2638448177411 L726.5383559221384,364.12509222351 M726.5383559221384,364.12509222351 L715.5698512818077,362.5087790855446 M715.5698512818077,362.5087790855446 L704.4378674555762,361.425396443047 M704.4378674555762,361.425396443047 L693.2164521012717,360.88193550002404 M693.2164521012717,360.88193550002404 L681.9803423476677,360.88193550002404 M681.9803423476677,360.88193550002404 L670.8042339247019,361.42539253771406 M670.8042339247019,361.42539253771406 L659.7624961519565,362.5087790855446 M659.7624961519565,362.5087790855446 L648.9286767656299,364.12508636202756 M648.9286767656299,364.12508636202756 L638.3750395921206,366.26383895349863 M638.3750395921206,366.26383895349863 L628.1721162996052,368.9111562219118 M628.1721162996052,368.9111562219118 L618.388214838817,372.0497984524699 M618.388214838817,372.0497984524699 L609.0891331816624,375.65933631221435 M609.0891331816624,375.65933631221435 L600.3376166849615,379.71620875669464 M600.3376166849615,379.71620875669464 L592.192959687282,384.1938451836256 M589.6935998652865,434.162384241385 L466.9159696122797,507.9845643956709 M705.3371655479891,501.22430043823783 L710.9770576645612,497.37601109084346 M710.9770576645612,497.37601109084346 L715.86347461684,493.1806850541054 M715.86347461684,493.1806850541054 L719.9396308555027,488.6883607941951 M719.9396308555027,488.6883607941951 L723.1586069119676,483.9525153025668 M723.1586069119676,483.9525153025668 L725.4837696105049,479.0293341568205 M725.4837696105049,479.0293341568205 L726.8891838409075,473.9770512557527 M726.8891838409075,473.9770512557527 L727.3598735742596,468.85525074158795 M727.3598735742596,468.85525074158795 L726.8918312068251,463.7240980166557 M726.8918312068251,463.7240980166557 L725.4921647001449,458.64372642090075 M725.4921647001449,458.64372642090075 L723.1787084194679,453.67340438733027 M723.1787084194679,453.67340438733027 L719.979963781298,448.8709764746759 M719.979963781298,448.8709764746759 L715.9346132895702,444.2921537967925 M715.9346132895702,444.2921537967925 L711.0909350751521,439.9898502507958 M711.0909350751521,439.9898502507958 L705.5064091681528,436.01371399964523 M705.5064091681528,436.01371399964523 L699.2466984622838,432.4094024383161 M699.2466984622838,432.4094024383161 L692.3852503886222,429.2183119428165 M692.3852503886222,429.2183119428165 L685.0020321173897,426.4769011456468 M685.0020321173897,426.4769011456468 L677.1829979222638,424.21652582890283 M677.1829979222638,424.21652582890283 L669.0187982453616,422.46292726699824 M669.0187982453616,422.46292726699824 L660.6039650587285,421.23608672974217 M660.6039650587285,421.23608672974217 L652.0357913871363,420.5499730712768 M652.0357913871363,420.5499730712768 L643.4131648818416,420.4123477883277 M643.4131648818416,420.4123477883277 L634.835689899933,420.82481048945465 M634.835689899933,420.82481048945465 L626.4023658692396,421.78264917091406 M626.4023658692396,421.78264917091406 L618.2106652246257,423.2749874947989 M618.2106652246257,423.2749874947989 L610.3553619834825,425.2848414932047 M610.3553619834825,425.2848414932047 L602.927493751606,427.78930643817057 M602.927493751606,427.78930643817057 L596.0133930590725,430.7598147472942 M596.0133930590725,430.7598147472942 L589.6935998652865,434.162384241385 M582.5922507635618,576.1363613182027 L705.3371655479891,501.22430043823783 M466.9159696122797,507.9845643956709 L461.16758224297405,511.84171790907794 M461.16758224297405,511.84171790907794 L456.15505407974774,516.0540641911987 M456.15505407974774,516.0540641911987 L451.9377337664199,520.5731285159372 M451.9377337664199,520.5731285159372 L448.5658475597686,525.3467418552505 M448.5658475597686,525.3467418552505 L446.0800416177724,530.319631783751 M446.0800416177724,530.319631783751 L444.51077246718114,535.434037152697 M444.51077246718114,535.434037152697 L443.8778875887597,540.6303403304902 M443.8778875887597,540.6303403304902 L444.1904149749806,545.8478079389082 M444.1904149749806,545.8478079389082 L445.44622215435527,551.0251895012973 M445.44622215435527,551.0251895012973 L447.63218068091805,556.101580763187 M447.63218068091805,556.101580763187 L450.72405730912976,561.0170070389513 M450.72405730912976,561.0170070389513 L454.6867694039746,565.7132301399085 M454.6867694039746,565.7132301399085 L459.47488220998036,570.1344606057698 M459.47488220998036,570.1344606057698 L465.0328463515667,574.2279484068408 M465.0328463515667,574.2279484068408 L471.29592560764775,577.9448342367497 M471.29592560764775,577.9448342367497 L478.19057738209597,581.240523158897 M478.19057738209597,581.240523158897 L485.635721386186,584.0754938715074 M485.635721386186,584.0754938715074 L493.5432968932611,586.4155915365109 M493.5432968932611,586.4155915365109 L501.8196519929354,588.2326529999128 M501.8196519929354,588.2326529999128 L510.366520205592,589.5047243785233 M510.366520205592,589.5047243785233 L519.0822342086249,590.2164343459742 M519.0822342086249,590.2164343459742 L527.8631266492409,590.3592179263069 M527.8631266492409,590.3592179263069 L536.6045784022326,589.9313153789977 M536.6045784022326,589.9313153789977 L545.2025659637923,588.9379230594703 M545.2025659637923,588.9379230594703 L553.5547765261393,587.3910281858888 M553.5547765261393,587.3910281858888 L561.5619784070511,585.3093055940519 M561.5619784070511,585.3093055940519 L569.1292138345248,582.7178723030025 M569.1292138345248,582.7178723030025 L576.1669604981411,579.6479098423287 M576.1669604981411,579.6479098423287 L582.5922507635618,576.1363613182027 M382.066285137043,628.239855527412 L400.8788462872395,610.7698261342108 M399.82815825997443,503.8271672470762 L392.4654276891519,508.63774083604983 M392.4654276891519,508.63774083604983 L385.8314390123499,513.8198136299794 M385.8314390123499,513.8198136299794 L379.9771884779338,519.3350960019242 M379.9771884779338,519.3350960019242 L374.9480798096786,525.142750160328 M374.9480798096786,525.142750160328 L370.7835554661147,531.1995828706472 M370.7835554661147,531.1995828706472 L367.5167437975022,537.4603227729727 M367.5167437975022,537.4603227729727 L365.1741780390946,543.8780817081217 M365.1741780390946,543.8780817081217 L363.7755041364112,550.4045302379533 M363.7755041364112,550.4045302379533 L363.3332917802005,556.9903401124764 M363.3332917802005,556.9903401124764 L363.85309867945426,563.5855128628228 M363.85309867945426,563.5855128628228 L365.3328502660848,570.1397655740113 M365.3328502660848,570.1397655740113 L367.7633098145832,576.6029253773393 M367.7633098145832,576.6029253773393 L371.1278685411113,582.9252834212751 M371.1278685411113,582.9252834212751 L375.40258607914933,589.0580719182988 M375.40258607914933,589.0580719182988 L380.5564277151252,594.953735816631 M380.5564277151252,594.953735816631 L386.55132004794467,600.5663918063598 M386.55132004794467,600.5663918063598 L393.34249054265933,605.8522280031391 M393.34249054265933,605.8522280031391 L400.8788462872395,610.7698261342108 M399.82815825997443,503.8271672470762 L409.2353445298395,489.4056637551723 M591.7007555447303,380.3259345758846 L409.2353445298395,489.4056637551723 M591.7478434483002,388.9860498730984 L591.7007555447303,380.3259345758846 M767.2460014732757,388.9860498730984 L759.0520750506474,384.69130486228846 M759.0520750506474,384.69130486228846 L750.2799386152408,380.8248659732038 M750.2799386152408,380.8248659732038 L740.9957535952003,377.4150227931849 M740.9957535952003,377.4150227931849 L731.2692848081323,374.48667894891435 M731.2692848081323,374.48667894891435 L721.1734096850405,372.06119106209087 M721.1734096850405,372.06119106209087 L710.783538227984,370.15620010003306 M710.783538227984,370.15620010003306 L700.177079630109,368.7855324224689 M700.177079630109,368.7855324224689 L689.4329520989024,367.95913814220046 M689.4329520989024,367.95913814220046 L678.6309905626989,367.68299170001774 M678.6309905626989,367.68299170001774 L667.8515318492409,367.95913814220046 M667.8515318492409,367.95913814220046 L657.1745797061282,368.7855363380495 M657.1745797061282,368.7855363380495 L646.6795296670693,370.15620010003295 M646.6795296670693,370.15620010003295 L636.4445186350933,372.0612028173002 M636.4445186350933,372.0612028173002 L626.5458137325955,374.48668090916124 M626.5458137325955,374.48668090916124 L617.0574217172341,377.4150149471476 M617.0574217172341,377.4150149471476 L608.0504507985576,380.8248600842643 M608.0504507985576,380.8248600842643 L599.5926191157305,384.69130191531656 M599.5926191157305,384.69130191531656 L591.7478434483002,388.9860498730984 M784.9464369164535,384.1938451836256 L767.2460014732757,388.9860498730984 M772.4892500131702,493.2675590103497 L779.6419549865727,488.47297493084864 M779.6419549865727,488.47297493084864 L786.0373943766161,483.3193185836104 M786.0373943766161,483.3193185836104 L791.6274304789447,477.84692696440777 M791.6274304789447,477.84692696440777 L796.3704154249383,472.09850262975465 M796.3704154249383,472.09850262975465 L800.2315694554453,466.1188188986225 M800.2315694554453,466.1188188986225 L803.1828557757124,459.9541355464737 M803.1828557757124,459.9541355464737 L805.2035634939516,453.652073740668 M805.2035634939516,453.652073740668 L806.2801643450983,447.26107737729546 M806.2801643450983,447.26107737729546 L806.4064242079259,440.83008604554163 M806.4064242079259,440.83008604554163 L805.5833045862463,434.4080784834715 M805.5833045862463,434.4080784834715 L803.8191244102951,428.04385899074964 M803.8191244102951,428.04385899074964 L801.1291800073102,421.7855259837281 M801.1291800073102,421.7855259837281 L797.5357183973639,415.68019529082403 M797.5357183973639,415.68019529082403 L793.0676483546571,409.7736316961127 M793.0676483546571,409.7736316961127 L787.7603162143141,404.1099508259764 M787.7603162143141,404.1099508259764 L781.655215923746,398.7313072625285 M781.655215923746,398.7313072625285 L774.7995815059746,393.6775681282178 M774.7995815059746,393.6775681282178 L767.2460014732757,388.9860498730984 M790.9344876136009,498.7972490041518 L772.4892500131702,493.2675590103497 M579.9860967909914,628.2398555274121 L580.6495075796907,610.7698261342108 M400.8788462872395,610.7698261342108 L409.10317450476293,615.2805365824122 M409.10317450476293,615.2805365824122 L417.95271278582703,619.3487730262598 M417.95271278582703,619.3487730262598 L427.35957043921826,622.9424068232511 M427.35957043921826,622.9424068232511 L437.2512990089739,626.0329455690857 M437.2512990089739,626.0329455690857 L447.55139529096357,628.595824791976 M447.55139529096357,628.595824791976 L458.17995444444057,630.6106793942376 M458.17995444444057,630.6106793942376 L469.0544420482529,632.0614442111712 M469.0544420482529,632.0614442111712 L480.0901748977259,632.9365641868748 M480.0901748977259,632.9365641868748 L491.20116477401905,633.2290812922413 M491.20116477401905,633.2290812922413 L502.3007716888293,632.9365641868748 M502.3007716888293,632.9365641868748 L513.3024502666252,632.0614442111712 M513.3024502666252,632.0614442111712 L524.1204830521417,630.6106793942376 M524.1204830521417,630.6106793942376 L534.6706643750442,628.595841362431 M534.6706643750442,628.595841362431 L544.8709869585826,626.0329207270282 M544.8709869585826,626.0329207270282 L554.6424651871331,622.9424068232511 M554.6424651871331,622.9424068232511 L563.9094672763023,619.3487812951067 M563.9094672763023,619.3487812951067 L572.6006804803019,615.2805200591214 M572.6006804803019,615.2805200591214 L580.6495075796907,610.7698261342108 M580.6495075796907,610.7698261342108 L772.4892500131702,493.2675590103497 M590.3324596812861,393.8404857201432 L467.27809515879426,467.5062832275951 M467.27809515879426,467.5062832275951 L466.9159696122797,507.9845643956709 M590.3324596812861,393.8404857201432 L589.6935998652865,434.162384241385 M467.27809515879426,467.5062832275951 L461.5166556545505,471.3553402470362 M461.5166556545505,471.3553402470362 L456.4927682636003,475.5588528939825 M456.4927682636003,475.5588528939825 L452.26591734286205,480.0684501664556 M452.26591734286205,480.0684501664556 L448.88644459434283,484.8320742078764 M448.88644459434283,484.8320742078764 L446.3950902169212,489.79456986363425 M446.3950902169212,489.79456986363425 L444.82238185121093,494.89829797398284 M444.82238185121093,494.89829797398284 L444.18821404795176,500.083766217812 M444.18821404795176,500.083766217812 L444.5016371700035,505.29036825085916 M444.5016371700035,505.29036825085916 L445.7605154407379,510.4569810797366 M445.7605154407379,510.4569810797366 L447.95169162683715,515.522826586414 M447.95169162683715,515.522826586414 L451.0508777729243,520.428053690911 M451.0508777729243,520.428053690911 L455.02291103470327,525.1145436585176 M455.02291103470327,525.1145436585176 L459.8222519526355,529.5266209334098 M459.8222519526355,529.5266209334098 L465.3932223865362,533.6116427164369 M465.3932223865362,533.6116427164369 L471.6709353706118,537.3208486115682 M471.6709353706118,537.3208486115682 L478.58167642749675,540.6097336257685 M478.58167642749675,540.6097336257685 L486.0441752146869,543.4388558923429 M486.0441752146869,543.4388558923429 L493.9701641264311,545.7741290238183 M493.9701641264311,545.7741290238183 L502.26577088212855,547.5874461625888 M502.26577088212855,547.5874461625888 L510.8324975458329,548.8568972250754 M510.8324975458329,548.8568972250754 L519.5684372499795,549.5671415049602 M519.5684372499795,549.5671415049602 L528.3696784611144,549.7096310686719 M528.3696784611144,549.7096310686719 L537.131355880624,549.282609678606 M537.131355880624,549.282609678606 L545.7492016535319,548.2912633502491 M545.7492016535319,548.2912633502491 L554.1206632361226,546.7475554374947 M554.1206632361226,546.7475554374947 L562.1462771986724,544.6701235505429 M562.1462771986724,544.6701235505429 L569.7308649389018,542.0840345519889 M569.7308649389018,542.0840345519889 L576.7846970475499,539.0204075657812 M576.7846970475499,539.0204075657812 L583.2246152027507,535.5161115541291 M583.2246152027507,535.5161115541291 L582.5922507635618,576.1363613182027 M583.2246152027507,535.5161115541291 L706.2460384807777,460.7602274594508 M706.2460384807777,460.7602274594508 L705.3371655479891,501.22430043823783 M706.2460384807777,460.7602274594508 L711.8984847465348,456.9200362779386 M711.8984847465348,456.9200362779386 L716.7956825715085,452.7335470729181 M716.7956825715085,452.7335470729181 L720.880722521909,448.25069491624083 M720.880722521909,448.25069491624083 L724.1065850212685,443.5248458438957 M724.1065850212685,443.5248458438957 L726.4365613316578,438.61206835062126 M726.4365613316578,438.61206835062126 L727.8446660472714,433.57047443112845 M727.8446660472714,433.57047443112845 L728.3158984536864,428.4595229114087 M728.3158984536864,428.4595229114087 L727.8462516130786,423.33925205109597 M727.8462516130786,423.33925205109597 L726.4428595676608,418.26966750492807 M726.4428595676608,418.26966750492807 L724.123606993793,413.309911256256 M724.123606993793,413.309911256256 L720.9170694584416,408.5177038744148 M720.9170694584416,408.5177038744148 L716.862026094207,403.9486365139735 M716.862026094207,403.9486365139735 L712.0068725847763,399.6555086385172 M712.0068725847763,399.6555086385172 L706.4092263754022,395.6878606010042 M706.4092263754022,395.6878606010042 L700.1349051648808,392.0912502685037 M700.1349051648808,392.0912502685037 L693.2575276106764,388.90698346737133 M693.2575276106764,388.90698346737133 L685.8572455933011,386.17143882560526 M685.8572455933011,386.17143882560526 L678.0202104047496,383.9159031363131 M678.0202104047496,383.9159031363131 L669.8372789196291,382.16606090343464 M669.8372789196291,382.16606090343464 L661.4031972187039,380.9418492508995 M661.4031972187039,380.9418492508995 L652.8154776984577,380.2572061286497 M652.8154776984577,380.2572061286497 L644.1732301565777,380.1198758438677 M644.1732301565777,380.1198758438677 L635.5762820748334,380.53145446421115 M635.5762820748334,380.53145446421115 L627.1238541678216,381.4872404209532 M627.1238541678216,381.4872404209532 L618.91363643352,382.97638145243536 M618.91363643352,382.97638145243536 L611.0406142558498,384.9819311431788 M611.0406142558498,384.9819311431788 L603.5960282305044,387.4810353272295 M603.5960282305044,387.4810353272295 L596.6664034549792,390.4451893555199 M596.6664034549792,390.4451893555199 L590.3324596812861,393.8404857201432 M400.8788462872395,610.7698261342108 L410.3373250930961,590.8629457160005 M409.2353445298395,489.4056637551723 L402.2401889007695,493.9719881144024 M402.2401889007695,493.9719881144024 L395.9385672298248,498.8906704978791 M395.9385672298248,498.8906704978791 L390.37892930374164,504.12535036367035 M390.37892930374164,504.12535036367035 L385.60431929151105,509.6371564366523 M385.60431929151105,509.6371564366523 L381.6521882618327,515.3850891713603 M381.6521882618327,515.3850891713603 L378.5538675992559,521.3261804897297 M378.5538675992559,521.3261804897297 L376.33440119905407,527.4158279302999 M376.33440119905407,527.4158279302999 L375.0124517523325,533.608183535808 M375.0124517523325,533.608183535808 L374.59979078234824,539.8564357418343 M374.59979078234824,539.8564357418343 L375.1013836093436,546.1131306251036 M375.1013836093436,546.1131306251036 L376.51526800762986,552.3305577060914 M376.51526800762986,552.3305577060914 L378.8325415959596,558.4611437741554 M378.8325415959596,558.4611437741554 L382.03713170519154,564.4577891845748 M382.03713170519154,564.4577891845748 L386.10625267141916,570.2742278167032 M386.10625267141916,570.2742278167032 L391.01026788242234,575.8653939984279 M391.01026788242234,575.8653939984279 L396.71283338188306,581.187861544424 M396.71283338188306,581.187861544424 L403.17143347779216,586.2001241728352 M403.17143347779216,586.2001241728352 L410.3373250930961,590.8629457160005 M409.2353445298395,489.4056637551723 L437.382403919278,468.3502407865509 M591.205670234488,376.435382754652 L437.382403919278,468.3502407865509 M591.7007555447303,380.3259345758846 L591.205670234488,376.435382754652 M758.6554673275043,380.3259345758846 L750.8641162708067,376.24405846137677 M750.8641162708067,376.24405846137677 L742.5219390428294,372.56907817679917 M742.5219390428294,372.56907817679917 L733.6919510281782,369.32798306544896 M733.6919510281782,369.32798306544896 L724.4405040360873,366.54446020145133 M724.4405040360873,366.54446020145133 L714.8369715634601,364.23884741634413 M714.8369715634601,364.23884741634413 L704.9531505580729,362.42796894833316 M704.9531505580729,362.42796894833316 L694.8627468060623,361.1249864782004 M694.8627468060623,361.1249864782004 L684.6409814480791,360.33940175738655 M684.6409814480791,360.33940175738655 L674.3638653514048,360.07690249549773 M674.3638653514048,360.07690249549773 L664.1078501114409,360.33939588120063 M664.1078501114409,360.33939588120063 L653.9492410731358,361.1249864782004 M653.9492410731358,361.1249864782004 L643.9636682150799,362.4279767868518 M643.9636682150799,362.4279767868518 L634.2254642456717,364.23885133716635 M634.2254642456717,364.23885133716635 L624.8073502087216,366.5444523558265 M624.8073502087216,366.5444523558265 L615.7797995025952,369.327986009361 M615.7797995025952,369.327986009361 L607.2104526930353,372.5690845598242 M607.2104526930353,372.5690845598242 L599.1638435389331,376.2440569871802 M599.1638435389331,376.2440569871802 L591.7007555447303,380.3259345758846 M767.2460014732757,388.9860498730984 L758.6554673275043,380.3259345758846 M763.5471949561389,479.38139952546385 L770.3525208225341,474.82952282600183 M770.3525208225341,474.82952282600183 L776.4385112878658,469.9364886221474 M776.4385112878658,469.9364886221474 L781.7592758222944,464.740510273669 M781.7592758222944,464.740510273669 L786.2752802382147,459.28217213077903 M786.2752802382147,459.28217213077903 L789.953154195542,453.60382878744883 M789.953154195542,453.60382878744883 L792.7662650877473,447.74946014204806 M792.7662650877473,447.74946014204806 L794.6947733551199,441.7642474651042 M794.6947733551199,441.7642474651042 L795.7256012137236,435.6941385939989 M795.7256012137236,435.6941385939989 L795.8526875029125,429.58560441048076 M795.8526875029125,429.58560441048076 L795.076888434286,423.4852208547413 M795.076888434286,423.4852208547413 L793.405896941178,417.43931242003623 M793.405896941178,417.43931242003623 L790.8541106316911,411.4935694902417 M790.8541106316911,411.4935694902417 L787.4425941547454,405.692813728523 M787.4425941547454,405.692813728523 L783.1987019746551,400.0805542370865 M783.1987019746551,400.0805542370865 L778.1559773589072,394.69874631498953 M778.1559773589072,394.69874631498953 L772.353787337091,389.58749218839 M772.353787337091,389.58749218839 L765.8369319209659,384.7847031020202 M765.8369319209659,384.7847031020202 L758.6554673275043,380.3259345758846 M772.4892500131702,493.2675590103497 L763.5471949561389,479.38139952546385 M580.6495075796907,610.7698261342108 L581.1541077806633,590.8629457160005 M410.3373250930961,590.8629457160005 L418.15617949387735,595.1397300864123 M418.15617949387735,595.1397300864123 L426.56832526025266,598.996843865209 M426.56832526025266,598.996843865209 L435.5092219276936,602.4038073302145 M435.5092219276936,602.4038073302145 L444.910032112365,605.3337321324599 M444.910032112365,605.3337321324599 L454.69817331246736,607.7633440503754 M454.69817331246736,607.7633440503754 L464.7977759754557,609.6733654981401 M464.7977759754557,609.6733654981401 L475.1304236158277,611.0486622242248 M475.1304236158277,611.0486622242248 L485.6157884163239,611.8782186940308 M485.6157884163239,611.8782186940308 L496.1722797100439,612.1554709465686 M496.1722797100439,612.1554709465686 L506.7176623515908,611.8782186940308 M506.7176623515908,611.8782186940308 L517.16978935439,611.0486622242248 M517.16978935439,611.0486622242248 L527.4473330494386,609.6733654981401 M527.4473330494386,609.6733654981401 L537.4704205191376,607.7633357827178 M537.4704205191376,607.7633357827178 L547.1612010389305,605.3337321324599 M547.1612010389305,605.3337321324599 L556.4446045564973,602.403815588375 M556.4446045564973,602.403815588375 L565.2490360187126,598.9968603694616 M565.2490360187126,598.9968603694616 L573.5065975953545,595.1397383317097 M573.5065975953545,595.1397383317097 L581.1541077806633,590.8629457160005 M581.1541077806633,590.8629457160005 L763.5471949561389,479.38139952546385 M437.382403919278,468.3502407865509 L430.8024854531975,472.6919827805094 M430.8024854531975,472.6919827805094 L424.97140198645184,477.4031596120832 M424.97140198645184,477.4031596120832 L419.945860281461,482.4394684789331 M419.945860281461,482.4394684789331 L415.77515404276346,487.7533725736646 M415.77515404276346,487.7533725736646 L412.500585252305,493.2945706051977 M412.500585252305,493.2945706051977 L410.15516893707587,499.0103914977733 M410.15516893707587,499.0103914977733 L408.7630951751843,504.84633413404003 M408.7630951751843,504.84633413404003 L408.33958844732894,510.7465352693363 M408.33958844732894,510.7465352693363 L408.8905284677081,516.6542879015782 M408.8905284677081,516.6542879015782 L410.41251739051677,522.5125948253466 M410.41251739051677,522.5125948253466 L412.8926601278815,528.2647415860096 M412.8926601278815,528.2647415860096 L416.3087017232217,533.8547990211688 M416.3087017232217,533.8547990211688 L420.6292276798019,539.2282667787917 M420.6292276798019,539.2282667787917 L425.8137895592789,544.3325143740855 M425.8137895592789,544.3325143740855 L431.8133739114678,549.1174265400989 M431.8133739114678,549.1174265400989 L438.57069216855894,553.5358429107106 M438.57069216855894,553.5358429107106 L446.0208722065561,557.5441006790031 M446.0208722065561,557.5441006790031 L454.09197535147507,561.1024983088159 M454.09197535147507,561.1024983088159 L462.70569487874434,564.1756613465413 M462.70569487874434,564.1756613465413 L471.7782119159351,566.7330216551209 M471.7782119159351,566.7330216551209 L481.2209004430953,568.7490630263682 M481.2209004430953,568.7490630263682 L490.9414066933923,570.2036761188817 M490.9414066933923,570.2036761188817 L500.844408936135,571.0823086286979 M500.844408936135,571.0823086286979 L510.83274545596464,571.3761558868961 M510.83274545596464,571.3761558868961 L520.8083295510388,571.0823086286979 M520.8083295510388,571.0823086286979 L530.6732007761984,570.2036761188817 M530.6732007761984,570.2036761188817 L540.3305659954761,568.7490712525298 M540.3305659954761,568.7490712525298 L549.6857891173912,566.7330134325294 M549.6857891173912,566.7330134325294 L558.6473079555667,564.1756613465413 M558.6473079555667,564.1756613465413 L567.1276714119149,561.102490096191 M567.1276714119149,561.102490096191 L575.0443332225914,557.5441006790031 M575.0443332225914,557.5441006790031 L582.3205623246363,553.5358429107106 M582.3205623246363,553.5358429107106 L736.0923607992345,459.9176674172977 M736.0923607992345,459.9176674172977 L742.5191698225664,455.58797853476153 M742.5191698225664,455.58797853476153 L748.174178525635,450.89911545383984 M748.174178525635,450.89911545383984 L753.0035043399572,445.89726036852494 M753.0035043399572,445.89726036852494 L756.961559955202,440.6315338250016 M756.961559955202,440.6315338250016 L760.0114498504303,435.1534820491331 M760.0114498504303,435.1534820491331 L762.1252539569331,429.5165318476453 M762.1252539569331,429.5165318476453 L763.2842659410451,423.7754739145132 M763.2842659410451,423.7754739145132 L763.4790714485381,417.9858827368936 M763.4790714485381,417.9858827368936 L762.70965112015,412.20362665207904 M762.70965112015,412.20362665207904 L760.9852070230244,406.4842596358209 M760.9852070230244,406.4842596358209 L758.3240653649533,400.8825423907482 M758.3240653649533,400.8825423907482 L754.7534641822484,395.4519151492092 M754.7534641822484,395.4519151492092 L750.3091037040911,390.2439655729929 M750.3091037040911,390.2439655729929 L745.0349292014656,385.30803217643745 M745.0349292014656,385.30803217643745 L738.9824960680205,380.69068443095045 M738.9824960680205,380.69068443095045 L732.2106008376875,376.435382754652 M732.2106008376875,376.435382754652 L724.7845602443532,372.58203967071483 M724.7845602443532,372.58203967071483 L716.7756474301098,369.1666936817512 M716.7756474301098,369.1666936817512 L708.2604470936096,366.22124222787306 M708.2604470936096,366.22124222787306 L699.3200358284151,363.773094027506 M699.3200358284151,363.773094027506 L690.0393622594427,361.84503032587463 M690.0393622594427,361.84503032587463 L680.5063393974068,360.4549190099747 M680.5063393974068,360.4549190099747 L670.8111809016328,359.61566962214636 M670.8111809016328,359.61566962214636 L661.0455261946902,359.33505438608404 M661.0455261946902,359.33505438608404 L651.3016028776993,359.61566274468737 M651.3016028776993,359.61566274468737 L641.6714935691028,360.45491409659587 M641.6714935691028,360.45491409659587 L632.2462012271836,361.8450204961084 M632.2462012271836,361.8450204961084 L623.1149340053374,363.7730955025969 M623.1149340053374,363.7730955025969 L614.364248121344,366.2212384766625 M614.364248121344,366.2212384766625 L606.077306400936,369.1666963892966 M606.077306400936,369.1666963892966 L598.3330911791357,372.58203868541284 M598.3330911791357,372.58203868541284 L591.205670234488,376.435382754652 M410.3373250930961,590.8629457160005 L438.57069216855894,553.5358429107106 M758.6554673275043,380.3259345758846 L732.2106008376875,376.435382754652 M763.5471949561389,479.38139952546385 L736.0923607992345,459.9176674172977 M581.1541077806633,590.8629457160005 L582.3205623246363,553.5358429107106" stroke="black"  stroke-width="4"  fill="red"/></svg>